%FSTAX23Y23*%
%MOIN*%
%SFA1B1*%

%IPPOS*%
%ADD10R,0.098425X0.098425*%
%ADD11R,0.137795X0.137795*%
%ADD12R,0.118110X0.118110*%
%ADD13C,0.118110*%
%ADD14R,0.137795X0.137795*%
%ADD15R,0.078740X0.098425*%
%ADD16O,0.118110X0.078740*%
%ADD17R,0.137795X0.078740*%
%ADD18R,0.098425X0.078740*%
%ADD19C,0.137795*%
%ADD20R,0.078740X0.078740*%
%ADD21R,0.078740X0.078740*%
%ADD22C,0.010000*%
%ADD23C,0.027559*%
%LNclamp_pcb_copper_signal_bot-1*%
%LPD*%
G36*
X01049Y01233D02*
X01046Y0123D01*
X00565*
X00564Y01232*
X00556Y01243*
X00547Y01253*
X00535Y01261*
X00523Y01266*
X00509Y01269*
X00496*
X00482Y01266*
X0047Y01261*
X00459Y01253*
X00449Y01243*
X00441Y01232*
X0044Y0123*
X00335*
Y01455*
X0081*
Y0147*
X00835Y01495*
X01045*
X01049Y01233*
G37*
G36*
X01375Y01415D02*
X0137Y0137D01*
X01606Y01372*
X0161Y01369*
Y0113*
X01355*
X01255Y0123*
X01064*
X0106Y01233*
X0106Y01233*
X01055Y01495*
X01054Y01497*
X01054Y01498*
X01054Y01498*
X01054Y01499*
X01053Y015*
X01052Y01502*
X01052Y01502*
X01052Y01502*
X0105Y01503*
X01048Y01504*
X01048Y01504*
X01048Y01504*
X01046Y01504*
X01045Y01505*
X00835*
X00831Y01504*
X00827Y01502*
X00802Y01477*
X008Y01473*
X00799Y0147*
Y01465*
X00335*
Y0165*
X0114*
X01375Y01415*
G37*
G36*
X02906Y02105D02*
X02877D01*
X02877Y02079*
X02906Y02054*
Y02034*
X029*
X02877Y02054*
X02877Y02079*
X02875Y02081*
Y02055*
X02877Y02054*
X02877Y02053*
X02876Y02051*
X02876Y02049*
X02876Y02047*
X02875Y02046*
X02875Y02045*
X02875Y02044*
X02874Y02044*
X02874Y02043*
X02873Y02042*
X02872Y02041*
X02871Y02039*
X0287Y02038*
X02869Y02038*
X02868Y02037*
X02867Y02037*
X02867Y02037*
X02866Y02036*
X02864Y02035*
X02862Y02035*
X02861Y02034*
X0286Y02034*
X02859Y02034*
X02858*
X02858*
X02835*
X02833Y02034*
X02831Y02034*
X0283Y02035*
X02828Y02035*
X02827Y02036*
X02826Y02036*
X02826Y02037*
X02825Y02037*
X02824Y02038*
X02823Y02039*
X02821Y0204*
X0282Y02041*
X0282Y02042*
X02819Y02043*
X02819Y02043*
X02819Y02043*
X02818Y02045*
X02817Y02047*
X02817Y02048*
X02816Y0205*
X02816Y02051*
X02816Y02052*
Y02125*
X02906*
Y02105*
G37*
G36*
Y02002D02*
X02846D01*
X02883Y0197*
X02846Y01939*
X02906*
Y0192*
X02816*
Y0194*
X02852Y0197*
X02816Y02001*
Y02021*
X02906*
Y02002*
G37*
G36*
X02836Y01874D02*
X02906D01*
Y01854*
X02836*
Y01819*
X02816*
Y01909*
X02836*
Y01874*
G37*
G36*
X02926Y01721D02*
X02906D01*
Y01809*
X02926*
Y01721*
G37*
G36*
X0289Y01705D02*
X02891Y01705D01*
X02893Y01705*
X02894Y01704*
X02896Y01704*
X02896Y01703*
X02897Y01703*
X02897Y01703*
X02899Y01702*
X029Y01701*
X02901Y017*
X02902Y01698*
X02903Y01698*
X02903Y01697*
X02904Y01696*
X02904Y01696*
X02905Y01695*
X02905Y01693*
X02906Y01691*
X02906Y0169*
X02906Y01689*
X02906Y01688*
Y01615*
X02887*
Y01682*
X02887Y01683*
X02886Y01684*
X02886Y01685*
X02886Y01685*
X02885Y01686*
X02884Y01686*
X02883Y01686*
X02883*
X02883*
X0284*
X02838Y01686*
X02837Y01685*
X02837Y01685*
X02837Y01685*
X02836Y01684*
X02836Y01683*
X02836Y01682*
Y01615*
X02816*
Y01687*
X02816Y01689*
X02816Y0169*
X02817Y01692*
X02817Y01693*
X02818Y01695*
X02818Y01695*
X02818Y01696*
X02818Y01696*
X0282Y01698*
X02821Y01699*
X02822Y017*
X02823Y01701*
X02824Y01702*
X02825Y01702*
X02825Y01703*
X02825Y01703*
X02827Y01704*
X02828Y01704*
X0283Y01705*
X02831Y01705*
X02833Y01705*
X02834Y01705*
X02834*
X02834*
X02888*
X0289Y01705*
G37*
G36*
X02836Y01571D02*
X02906D01*
Y01552*
X02836*
Y01516*
X02816*
Y01607*
X02836*
Y01571*
G37*
G36*
Y01476D02*
X02906D01*
Y01456*
X02836*
Y01421*
X02816*
Y01511*
X02836*
Y01476*
G37*
G36*
X02906Y01392D02*
X02846D01*
X02883Y01361*
X02846Y0133*
X02906*
Y0131*
X02816*
Y0133*
X02852Y01361*
X02816Y01391*
Y01412*
X02906*
Y01392*
G37*
G36*
X02926Y01206D02*
X02906D01*
Y01295*
X02926*
Y01206*
G37*
G36*
X0289Y01191D02*
X02891Y01191D01*
X02893Y0119*
X02894Y0119*
X02896Y01189*
X02896Y01189*
X02897Y01189*
X02897Y01189*
X02899Y01188*
X029Y01187*
X02901Y01185*
X02902Y01184*
X02903Y01183*
X02903Y01183*
X02904Y01182*
X02904Y01182*
X02905Y0118*
X02905Y01179*
X02906Y01177*
X02906Y01176*
X02906Y01174*
X02906Y01173*
Y01101*
X02887*
Y01168*
X02887Y01169*
X02886Y0117*
X02886Y0117*
X02886Y01171*
X02885Y01171*
X02884Y01172*
X02883Y01172*
X02883*
X02883*
X0284*
X02838Y01172*
X02837Y01171*
X02837Y01171*
X02837Y01171*
X02836Y0117*
X02836Y01169*
X02836Y01168*
Y01101*
X02816*
Y01173*
X02816Y01174*
X02816Y01176*
X02817Y01178*
X02817Y01179*
X02818Y0118*
X02818Y01181*
X02818Y01182*
X02818Y01182*
X0282Y01183*
X02821Y01185*
X02822Y01186*
X02823Y01187*
X02824Y01188*
X02825Y01188*
X02825Y01189*
X02825Y01189*
X02827Y01189*
X02828Y0119*
X0283Y0119*
X02831Y01191*
X02833Y01191*
X02834Y01191*
X02834*
X02834*
X02888*
X0289Y01191*
G37*
G36*
X02906Y00997D02*
X02887D01*
Y01068*
X02816*
Y01088*
X02906*
Y00997*
G37*
G36*
Y0097D02*
X02877D01*
Y00919*
X02906*
Y00899*
X02834*
X02833Y009*
X02831Y009*
X02829Y009*
X02828Y00901*
X02827Y00901*
X02826Y00902*
X02825Y00902*
X02825Y00902*
X02824Y00903*
X02822Y00904*
X02821Y00905*
X0282Y00906*
X0282Y00907*
X02819Y00908*
X02819Y00909*
X02818Y00909*
X02818Y0091*
X02817Y00912*
X02817Y00914*
X02816Y00915*
X02816Y00916*
X02816Y00917*
Y00971*
X02816Y00973*
X02816Y00975*
X02817Y00977*
X02817Y00978*
X02818Y00979*
X02818Y0098*
X02818Y00981*
X02818Y00981*
X0282Y00982*
X02821Y00983*
X02822Y00985*
X02823Y00986*
X02824Y00986*
X02825Y00987*
X02825Y00987*
X02825Y00987*
X02827Y00988*
X02828Y00989*
X0283Y00989*
X02831Y0099*
X02833Y0099*
X02834Y0099*
X02834*
X02834*
X02906*
Y0097*
G37*
G36*
Y00866D02*
X02846D01*
X02883Y00834*
X02846Y00803*
X02906*
Y00784*
X02816*
Y00804*
X02852Y00834*
X02816Y00865*
Y00885*
X02906*
Y00866*
G37*
G36*
Y00749D02*
X02877D01*
X02877Y00697*
X02876Y00695*
X02876Y00693*
X02876Y00692*
X02875Y0069*
X02875Y00689*
X02875Y00688*
X02874Y00688*
X02874Y00688*
X02873Y00686*
X02872Y00685*
X02871Y00684*
X0287Y00683*
X02869Y00682*
X02868Y00681*
X02867Y00681*
X02867Y00681*
X02866Y0068*
X02864Y00679*
X02862Y00679*
X02861Y00679*
X0286Y00678*
X02859Y00678*
X02858*
X02858*
X02835*
X02833Y00678*
X02831Y00679*
X0283Y00679*
X02828Y0068*
X02827Y0068*
X02826Y00681*
X02826Y00681*
X02825Y00681*
X02824Y00682*
X02823Y00683*
X02821Y00684*
X0282Y00685*
X0282Y00686*
X02819Y00687*
X02819Y00687*
X02819Y00688*
X02818Y00689*
X02817Y00691*
X02817Y00692*
X02816Y00694*
X02816Y00695*
X02816Y00696*
Y00769*
X02906*
Y00749*
G37*
G36*
X02926Y00581D02*
X02906D01*
Y0067*
X02926*
Y00581*
G37*
G36*
X02906Y00516D02*
Y00499D01*
X02816Y00447*
Y0047*
X02882Y00508*
X02816Y00546*
Y00568*
X02906Y00516*
G37*
G36*
X0285Y00421D02*
X02845Y00417D01*
X02906*
Y00398*
X02816*
Y00417*
X0285Y00446*
Y00421*
G37*
G36*
X02906Y00371D02*
X02887D01*
Y00391*
X02906*
Y00371*
G37*
G36*
X02889Y00361D02*
X0289Y00361D01*
X02892Y0036*
X02893Y0036*
X02894Y00359*
X02895Y00359*
X02896Y00359*
X02896Y00359*
X02898Y00357*
X02899Y00356*
X029Y00355*
X02902Y00354*
X02902Y00353*
X02903Y00353*
X02903Y00352*
X02904Y00352*
X02904Y0035*
X02905Y00349*
X02906Y00347*
X02906Y00346*
X02906Y00345*
X02906Y00344*
Y00291*
X02906Y00289*
X02906Y00287*
X02905Y00285*
X02905Y00284*
X02904Y00283*
X02904Y00282*
X02904Y00282*
X02904Y00282*
X02902Y0028*
X02901Y00279*
X029Y00278*
X02899Y00277*
X02898Y00276*
X02897Y00275*
X02896Y00275*
X02896Y00275*
X02894Y00274*
X02893Y00273*
X02891Y00273*
X0289Y00272*
X02889Y00272*
X02888Y00272*
X02887*
X02887*
X02835*
X02833Y00272*
X02831Y00273*
X0283Y00273*
X02828Y00274*
X02827Y00274*
X02826Y00274*
X02826Y00275*
X02825Y00275*
X02824Y00276*
X02823Y00277*
X02821Y00278*
X0282Y00279*
X0282Y0028*
X02819Y00281*
X02819Y00281*
X02818Y00282*
X02818Y00283*
X02817Y00285*
X02817Y00286*
X02816Y00288*
X02816Y00289*
X02816Y0029*
Y00343*
X02816Y00345*
X02816Y00346*
X02817Y00348*
X02817Y00349*
X02818Y0035*
X02818Y00351*
X02818Y00352*
X02818Y00352*
X0282Y00353*
X02821Y00355*
X02822Y00356*
X02823Y00357*
X02824Y00357*
X02825Y00358*
X02825Y00358*
X02825Y00359*
X02827Y00359*
X02829Y0036*
X0283Y0036*
X02832Y00361*
X02833Y00361*
X02834Y00361*
X02834*
X02835*
X02887*
X02889Y00361*
G37*
%LNclamp_pcb_copper_signal_bot-2*%
%LPC*%
G36*
X01534Y0123D02*
X01524Y01228D01*
X01516Y01223*
X01515Y01222*
X0151Y01214*
X01508Y01205*
X0151Y01195*
X01515Y01187*
X01523Y01182*
X01532Y0118*
X01542Y01182*
X01549Y01187*
X01551Y01189*
X01556Y01196*
X01558Y01206*
X01556Y01215*
X01551Y01223*
X01543Y01228*
X01534Y0123*
G37*
G36*
X02857Y02105D02*
X02836D01*
Y02054*
X02857*
Y02105*
G37*
G36*
X02858Y0097D02*
X02836D01*
Y00919*
X02858*
Y0097*
G37*
G36*
X02857Y00749D02*
X02836D01*
Y00698*
X02857*
Y00749*
G37*
G36*
X02869Y00342D02*
X02836D01*
Y00302*
X02869Y00342*
G37*
G36*
X02886Y00332D02*
X02852Y00292D01*
X02886*
Y00332*
G37*
%LNclamp_pcb_copper_signal_bot-3*%
%LPD*%
G54D10*
X01455Y01442D03*
Y0097D03*
X00975D03*
Y01442D03*
X01534Y01206D03*
G54D11*
X0163Y01755D03*
Y01971D03*
X01464D03*
Y01755D03*
G54D12*
X01815Y01773D03*
G54D13*
X01279Y01773D03*
X00503Y01735D03*
Y01199D03*
G54D14*
X00485Y0155D03*
X00701D03*
Y01385D03*
X00485D03*
G54D15*
X00595Y0042D03*
X00495D03*
X0192D03*
X0182D03*
X01497D03*
X01397D03*
X01075D03*
X00975D03*
G54D16*
X02634Y00985D03*
Y01085D03*
Y01285D03*
Y00885D03*
Y01385D03*
Y01185D03*
G54D17*
X02271Y00885D03*
Y00985D03*
Y01085D03*
Y01185D03*
Y01285D03*
Y01385D03*
Y01485D03*
Y01585D03*
X01958D03*
Y01485D03*
Y01385D03*
Y01285D03*
Y01185D03*
Y01085D03*
Y00985D03*
Y00885D03*
G54D18*
X00495Y00855D03*
Y00955D03*
G54D19*
X00122Y00114D03*
X03113Y0012D03*
X00119Y02241D03*
X03104Y02244D03*
G54D20*
X01455Y00775D03*
X01349D03*
G54D21*
X00974Y00775D03*
X01095D03*
G54D22*
X0Y0D02*
X03228D01*
X0Y02362D02*
X03228D01*
Y0D02*
Y02362D01*
X0Y0D02*
Y02362D01*
G54D23*
X0272Y01511D02*
X02736Y01495D01*
X0272Y01185D02*
X02736Y01201D01*
X0253Y01511D02*
X0272D01*
X02736Y01201D02*
Y01495D01*
X02634Y01185D02*
X0272D01*
X02271Y01385D02*
X02403D01*
X0253Y01511*
X02396Y01285D02*
X02496Y01385D01*
X02634*
X02271Y01285D02*
X02396D01*
Y01185D02*
X02496Y01285D01*
X02634*
X02271Y01185D02*
X02396D01*
X02271Y01085D02*
X02634D01*
X02271Y00985D02*
X02634D01*
X02271Y00885D02*
X02634D01*
X02395Y01585D02*
X02426Y01616D01*
Y01638*
X02389Y01675D02*
X02426Y01638D01*
X01646Y01675D02*
X02389D01*
X02271Y01585D02*
X02395D01*
X00745Y00775D02*
X00974D01*
X00504Y00945D02*
X00574D01*
X00745Y00775*
X00495Y00955D02*
X00504Y00945D01*
X0163Y01691D02*
Y01971D01*
Y01691D02*
X01646Y01675D01*
X0177Y01385D02*
X01958D01*
X01665Y0128D02*
X0177Y01385D01*
X01665Y01105D02*
Y0128D01*
X0182Y01285D02*
X01958D01*
X0171Y00668D02*
Y01175D01*
X0182Y01285*
X00616Y00652D02*
X01693D01*
X0171Y00668*
X01722Y00615D02*
X01747Y0064D01*
X01753Y0054D02*
X01822Y00609D01*
X01737Y00577D02*
X01785Y00625D01*
X01459Y01585D02*
X01958D01*
X01459Y01447D02*
Y01585D01*
Y0175*
X01378Y00295D02*
X01803D01*
X00295Y00955D02*
D01*
X00495*
X00295Y00311D02*
Y00955D01*
X0192Y00421D02*
Y00525D01*
X0188Y00565D02*
Y00868D01*
Y00565D02*
X0192Y00525D01*
X0188Y00868D02*
X01896Y00885D01*
X01958*
X00295Y00311D02*
X00311Y00295D01*
X00511*
X00295Y00955D02*
Y01955D01*
X00311Y01971D02*
X01464D01*
X00295Y01955D02*
X00311Y01971D01*
X01459Y0175D02*
X01464Y01755D01*
X01455Y01442D02*
X01459Y01447D01*
X01464Y01755D02*
Y01971D01*
X01532Y01205D02*
X01534Y01206D01*
X01747Y01127D02*
X01805Y01185D01*
X01747Y0064D02*
Y01127D01*
X01805Y01185D02*
X01958D01*
X0153Y0097D02*
X01665Y01105D01*
X01455Y0097D02*
X0153D01*
X01455Y00775D02*
Y0097D01*
Y00775D02*
X01455D01*
X01455Y0097D02*
D01*
X01818Y01085D02*
X01958D01*
X01785Y00625D02*
Y01052D01*
X01818Y01085*
X00511Y00295D02*
X00991D01*
X00495Y00311D02*
Y0042D01*
Y00311D02*
X00511Y00295D01*
X00583Y00845D02*
X006Y00829D01*
X00504Y00845D02*
X00583D01*
X006Y00668D02*
Y00829D01*
X00595Y00595D02*
X00615Y00615D01*
X00595Y0042D02*
Y00595D01*
X00615Y00615D02*
X01722D01*
X01091Y00577D02*
X01737D01*
X01075Y0042D02*
Y00561D01*
X01091Y00577*
X006Y00668D02*
X00616Y00652D01*
X01507Y00496D02*
X01551Y0054D01*
X01753*
X01822Y00609D02*
Y00968D01*
X01838Y00985D02*
X01958D01*
X01822Y00968D02*
X01838Y00985D01*
X00495Y00855D02*
X00504Y00845D01*
X01095Y00775D02*
X01349D01*
X00965Y00429D02*
X00975Y0042D01*
X00974Y00775D02*
X00975D01*
Y00311D02*
Y0042D01*
Y00311D02*
X00991Y00295D01*
X01378*
X01395Y00311*
Y00417*
X01397Y0042*
X01803Y00295D02*
X0182Y00311D01*
Y0042*
X01497D02*
X01507Y00429D01*
Y00496*
M02*