%FSTAX23Y23*%
%MOIN*%
%SFA1B1*%

%IPPOS*%
%ADD10R,0.098425X0.078740*%
%ADD11R,0.118110X0.118110*%
%ADD12C,0.118110*%
%ADD13C,0.137795*%
%ADD14R,0.078740X0.078740*%
%ADD15C,0.027559*%
%LNlimitswitch_pcb_copper_signal_bot-1*%
%LPD*%
G36*
X00288Y01853D02*
X00257D01*
X00257Y01823*
X00288Y01798*
Y0178*
X00283Y01779*
X00257Y01802*
X00257Y01823*
X00256Y01825*
Y01803*
X00257Y01802*
X00257Y01797*
X00257Y01795*
X00257Y01793*
X00256Y01792*
X00256Y01791*
X00256Y01789*
X00255Y01789*
X00255Y01788*
X00255Y01788*
X00254Y01787*
X00253Y01785*
X00252Y01784*
X00251Y01783*
X0025Y01782*
X00249Y01782*
X00249Y01782*
X00248Y01782*
X00247Y01781*
X00245Y0178*
X00244Y0178*
X00243Y01779*
X00241Y01779*
X0024Y01779*
X0024*
X0024*
X00215*
X00214Y01779*
X00212Y0178*
X0021Y0178*
X00209Y0178*
X00208Y01781*
X00207Y01781*
X00207Y01781*
X00207Y01782*
X00205Y01782*
X00204Y01784*
X00203Y01785*
X00202Y01786*
X00201Y01787*
X00201Y01787*
X002Y01788*
X002Y01788*
X002Y01789*
X00199Y01791*
X00198Y01792*
X00198Y01794*
X00198Y01795*
X00198Y01796*
Y0187*
X00288*
Y01853*
G37*
G36*
Y0175D02*
X00222D01*
X00263Y01715*
X00222Y01681*
X00288*
Y01664*
X00198*
Y01682*
X00237Y01715*
X00198Y01748*
Y01766*
X00288*
Y0175*
G37*
G36*
X00214Y01617D02*
X00288D01*
Y016*
X00214Y01601*
X00214Y01564*
X00198*
Y01654*
X00214*
X00214Y01617*
G37*
G36*
X00305Y01465D02*
X00288D01*
Y01555*
X00305*
Y01465*
G37*
G36*
X00272Y0145D02*
X00274Y0145D01*
X00275Y0145*
X00277Y01449*
X00278Y01449*
X00279Y01448*
X00279Y01448*
X00279Y01448*
X00281Y01447*
X00282Y01446*
X00283Y01445*
X00284Y01444*
X00285Y01443*
X00285Y01442*
X00286Y01442*
X00286Y01442*
X00287Y0144*
X00287Y01439*
X00288Y01437*
X00288Y01436*
X00288Y01435*
X00288Y01434*
Y0136*
X00271*
Y01429*
X00271Y01431*
X00271Y01432*
X0027Y01432*
X0027Y01433*
X00269Y01433*
X00268Y01434*
X00267Y01434*
X00267*
X00267*
X00219*
X00217Y01434*
X00216Y01433*
X00216Y01433*
X00216Y01433*
X00215Y01432*
X00215Y01431*
X00214Y0143*
Y0136*
X00198*
Y01433*
X00198Y01435*
X00198Y01436*
X00198Y01438*
X00199Y01439*
X00199Y0144*
X002Y01441*
X002Y01442*
X002Y01442*
X00201Y01443*
X00202Y01444*
X00203Y01445*
X00204Y01446*
X00205Y01447*
X00206Y01448*
X00206Y01448*
X00206Y01448*
X00208Y01449*
X00209Y01449*
X00211Y0145*
X00212Y0145*
X00213Y0145*
X00214Y0145*
X00215*
X00215*
X00271*
X00272Y0145*
G37*
G36*
X00214Y01315D02*
X00288D01*
Y01298*
X00214Y01298*
X00214Y01261*
X00198*
Y01352*
X00214*
X00214Y01315*
G37*
G36*
Y01219D02*
X00288D01*
Y01203*
X00214Y01203*
X00214Y01166*
X00198*
Y01256*
X00214*
X00214Y01219*
G37*
G36*
X00288Y0114D02*
X00222D01*
X00263Y01106*
X00222Y01071*
X00288*
Y01055*
X00198*
Y01073*
X00237Y01106*
X00198Y01138*
Y01157*
X00288*
Y0114*
G37*
G36*
X00305Y00951D02*
X00288D01*
Y0104*
X00305*
Y00951*
G37*
G36*
X00288Y00846D02*
X00271D01*
Y0092*
X00198*
Y00936*
X00288*
Y00846*
G37*
G36*
X00272Y00839D02*
X00274Y00838D01*
X00275Y00838*
X00277Y00838*
X00278Y00837*
X00279Y00837*
X00279Y00837*
X00279Y00837*
X00281Y00835*
X00282Y00834*
X00283Y00833*
X00284Y00832*
X00285Y00831*
X00285Y00831*
X00286Y0083*
X00286Y0083*
X00287Y00829*
X00287Y00827*
X00288Y00826*
X00288Y00824*
X00288Y00823*
X00288Y00822*
Y00766*
X00288Y00764*
X00288Y00763*
X00287Y00761*
X00287Y0076*
X00287Y00759*
X00286Y00758*
X00286Y00757*
X00286Y00757*
X00285Y00756*
X00284Y00755*
X00283Y00753*
X00282Y00753*
X00281Y00752*
X0028Y00751*
X0028Y00751*
X00279Y00751*
X00278Y0075*
X00276Y0075*
X00275Y00749*
X00274Y00749*
X00272Y00749*
X00271Y00748*
X00271*
X00271*
X00252*
X0025Y00749*
X00249Y00749*
X00247Y00749*
X00246Y0075*
X00245Y0075*
X00244Y0075*
X00243Y00751*
X00243Y00751*
X00242Y00752*
X00241Y00753*
X0024Y00754*
X00239Y00755*
X00238Y00756*
X00237Y00756*
X00237Y00757*
X00237Y00757*
X00236Y00759*
X00236Y0076*
X00235Y00762*
X00235Y00763*
X00235Y00764*
X00235Y00765*
Y00821*
X00234Y00822*
X00234Y00822*
Y00822*
X00234Y00822*
X00234Y00822*
X00233*
X00233*
X00216*
X00215Y00822*
X00215Y00822*
X00215Y00822*
X00215*
X00214Y00821*
Y00766*
X00215Y00766*
X00215Y00766*
X00215Y00765*
X00216Y00765*
X00216*
X00216*
X00222*
Y00748*
X00215*
X00213Y00749*
X00212Y00749*
X0021Y00749*
X00209Y0075*
X00208Y0075*
X00207Y0075*
X00207Y00751*
X00206Y00751*
X00205Y00752*
X00204Y00753*
X00203Y00754*
X00202Y00755*
X00201Y00756*
X00201Y00756*
X002Y00757*
X002Y00757*
X00199Y00759*
X00199Y0076*
X00198Y00762*
X00198Y00763*
X00198Y00764*
X00198Y00765*
Y00821*
X00198Y00823*
X00198Y00825*
X00198Y00826*
X00199Y00827*
X00199Y00829*
X002Y00829*
X002Y0083*
X002Y0083*
X00201Y00832*
X00202Y00833*
X00203Y00834*
X00204Y00835*
X00205Y00835*
X00206Y00836*
X00206Y00836*
X00206Y00837*
X00208Y00837*
X00209Y00838*
X00211Y00838*
X00212Y00839*
X00213Y00839*
X00214Y00839*
X00215*
X00215*
X00234*
X00235Y00839*
X00237Y00838*
X00239Y00838*
X0024Y00838*
X00241Y00837*
X00242Y00837*
X00242Y00837*
X00243Y00837*
X00244Y00835*
X00245Y00834*
X00246Y00833*
X00247Y00832*
X00248Y00831*
X00249Y00831*
X00249Y0083*
X00249Y0083*
X0025Y00829*
X0025Y00827*
X00251Y00826*
X00251Y00824*
X00251Y00823*
X00251Y00822*
Y00766*
X00251Y00766*
X00252Y00766*
X00252*
X00252Y00765*
X00252Y00765*
X00253*
X00253*
X0027*
X0027Y00765*
X00271Y00765*
X00271Y00766*
X00271Y00766*
X00271Y00766*
Y00821*
X00271Y00822*
X00271Y00822*
Y00822*
X00271Y00822*
X0027Y00822*
X0027*
X0027*
X00264*
Y00839*
X00271*
X00272Y00839*
G37*
G36*
X00305Y00645D02*
X00288D01*
Y00735*
X00305*
Y00645*
G37*
G36*
X00288Y00581D02*
Y00566D01*
X00198Y00514*
Y00533*
X00268Y00574*
X00198Y00614*
Y00634*
X00288Y00581*
G37*
G36*
X0023Y0049D02*
X00221Y00483D01*
X00288*
Y00466*
X00198*
Y00485*
X0023Y00512*
Y0049*
G37*
G36*
X00288Y0044D02*
X00272Y0044D01*
X00272Y00456*
X00288*
Y0044*
G37*
G36*
X00272Y00427D02*
X00273Y00427D01*
X00275Y00427*
X00276Y00426*
X00277Y00426*
X00278Y00425*
X00279Y00425*
X00279Y00425*
X0028Y00424*
X00282Y00423*
X00283Y00422*
X00284Y00421*
X00285Y0042*
X00285Y00419*
X00285Y00419*
X00286Y00419*
X00286Y00417*
X00287Y00416*
X00287Y00414*
X00288Y00413*
X00288Y00412*
X00288Y00411*
Y00355*
X00288Y00353*
X00288Y00352*
X00287Y0035*
X00287Y00349*
X00286Y00348*
X00286Y00347*
X00286Y00347*
X00286Y00346*
X00285Y00345*
X00283Y00344*
X00282Y00343*
X00281Y00342*
X0028Y00341*
X0028Y00341*
X00279Y0034*
X00279Y0034*
X00277Y00339*
X00276Y00339*
X00274Y00338*
X00273Y00338*
X00272Y00338*
X00271Y00338*
X0027*
X0027*
X00215*
X00214Y00338*
X00212Y00338*
X00211Y00339*
X00209Y00339*
X00208Y00339*
X00207Y0034*
X00207Y0034*
X00207Y0034*
X00205Y00341*
X00204Y00342*
X00203Y00343*
X00202Y00344*
X00201Y00345*
X00201Y00346*
X002Y00346*
X002Y00346*
X00199Y00348*
X00199Y00349*
X00198Y00351*
X00198Y00352*
X00198Y00353*
X00198Y00354*
Y0041*
X00198Y00412*
X00198Y00413*
X00198Y00415*
X00199Y00416*
X00199Y00417*
X002Y00418*
X002Y00419*
X002Y00419*
X00201Y0042*
X00202Y00421*
X00203Y00422*
X00204Y00423*
X00205Y00424*
X00206Y00425*
X00206Y00425*
X00207Y00425*
X00208Y00426*
X0021Y00426*
X00211Y00427*
X00213Y00427*
X00214Y00427*
X00215Y00427*
X00215*
X00215*
X0027*
X00272Y00427*
G37*
%LNlimitswitch_pcb_copper_signal_bot-2*%
%LPC*%
G36*
X00239Y01853D02*
X00239D01*
X00239*
X00216*
X00216Y01853*
X00215Y01853*
X00215Y01853*
X00215*
X00215Y01852*
X00214Y01852*
Y01797*
X00215Y01797*
X00215Y01797*
X00215Y01796*
X00215Y01796*
X00216Y01796*
X00216*
X00216*
X00239*
X00239Y01796*
X0024Y01796*
X0024Y01796*
X0024Y01796*
X0024Y01797*
Y01852*
X0024Y01852*
X0024Y01853*
Y01853*
X0024Y01853*
X00239Y01853*
G37*
G36*
X00256Y00411D02*
X00216D01*
X00216Y00411*
X00215Y00411*
X00215Y00411*
X00215*
X00215Y0041*
X00215Y0041*
Y00362*
X00256Y00411*
G37*
G36*
X00271Y00403D02*
X0023Y00354D01*
X00269*
X0027Y00354*
X0027Y00354*
X0027Y00355*
X0027Y00355*
X00271Y00355*
X00271Y00355*
Y00403*
G37*
%LNlimitswitch_pcb_copper_signal_bot-3*%
%LPD*%
G54D10*
X0059Y01001D03*
Y01301D03*
Y01201D03*
Y01101D03*
X01295Y0177D03*
Y0187D03*
Y0135D03*
Y0145D03*
Y0061D03*
Y0051D03*
Y0093D03*
Y0103D03*
G54D11*
X00815Y0164D03*
Y01856D03*
X00649D03*
Y0164D03*
G54D12*
X01Y01658D03*
X00464D03*
G54D13*
X00118Y00118D03*
X01732D03*
Y02125D03*
X00118D03*
G54D14*
X00979Y01159D03*
X0109D03*
X00979Y01021D03*
X0109D03*
X00979Y01297D03*
X0109D03*
X00979Y00883D03*
X0109D03*
G54D15*
X0059Y01101D02*
X00778D01*
X0059Y01001D02*
X0075D01*
X00415Y01011D02*
X00504Y01101D01*
X00377Y0053D02*
Y01181D01*
X00415Y00546D02*
Y01011D01*
X00555Y003D02*
X01513D01*
X00377Y01181D02*
X00398Y01201D01*
X0057Y00337D02*
X01476D01*
X00452Y00561D02*
Y00949D01*
X00504Y01001D02*
X0059D01*
X00415Y00546D02*
X00586Y00375D01*
X00452Y00561D02*
X00601Y00412D01*
X00452Y00949D02*
X00504Y01001D01*
X0034Y00514D02*
X00555Y003D01*
X00377Y0053D02*
X0057Y00337D01*
X0034Y00514D02*
Y01281D01*
X00586Y00375D02*
X01434D01*
X00504Y01101D02*
X0059D01*
X0034Y01281D02*
X0036Y01302D01*
X00525*
X0059Y01299D02*
X00977D01*
X00398Y01201D02*
X0059D01*
X00527Y01299D02*
X0059D01*
Y01201D02*
X00825D01*
X00868Y01159D02*
X00979D01*
X00825Y01201D02*
X00868Y01159D01*
X00858Y01021D02*
X00979D01*
X00778Y01101D02*
X00858Y01021D01*
X00868Y00883D02*
X00979D01*
X0075Y01001D02*
X00868Y00883D01*
X01206Y0051D02*
X01295D01*
X00601Y00412D02*
X01418D01*
X0119Y00526D02*
X01206Y0051D01*
X00977Y01299D02*
X00979Y01297D01*
X0109Y01021D02*
Y01159D01*
Y01297*
X01513Y01875D02*
X01547Y01841D01*
X013Y01875D02*
X01513D01*
X0119Y00946D02*
Y0135D01*
X01295Y0187D02*
X013Y01875D01*
X01295Y0103D02*
X01418D01*
X00649Y01475D02*
Y0164D01*
Y01856*
X00815Y0164D02*
Y01856D01*
X0109Y01297D02*
Y01396D01*
X01186Y01353D02*
Y0145D01*
X00649Y01475D02*
X00712Y01412D01*
X0119Y0135D02*
Y0145D01*
X01295D02*
X01476D01*
X0085D02*
X01186D01*
X0119Y01753D02*
X01206Y0177D01*
X0119Y0145D02*
Y01753D01*
X01206Y0177D02*
X01295D01*
X00815Y01485D02*
X0085Y0145D01*
X00815Y01485D02*
Y0164D01*
X01476Y0145D02*
X0151Y01416D01*
X01434Y00375D02*
X01472Y00413D01*
X01418Y00412D02*
X01435Y00428D01*
X01472Y00413D02*
Y00976D01*
X01418Y0061D02*
X01435Y00593D01*
X0151Y00371D02*
Y01416D01*
X01418Y0103D02*
X01472Y00976D01*
X01476Y00337D02*
X0151Y00371D01*
X01435Y00428D02*
Y00593D01*
X00712Y01412D02*
X01073D01*
X0109Y01396*
X00525Y01302D02*
X00527Y01299D01*
X01186Y01353D02*
X0119Y0135D01*
X01295*
X0109Y00883D02*
Y01021D01*
X01206Y0093D02*
X01295D01*
X0119Y00946D02*
X01206Y0093D01*
X01295Y0061D02*
X01418D01*
X01547Y00333D02*
Y01841D01*
X01513Y003D02*
X01547Y00333D01*
X0119Y00526D02*
Y00946D01*
M02*