%FSTAX23Y23*%
%MOIN*%
%SFA1B1*%

%IPPOS*%
%AMD23*
4,1,8,-0.020700,-0.041300,0.020700,-0.041300,0.041300,-0.020700,0.041300,0.020700,0.020700,0.041300,-0.020700,0.041300,-0.041300,0.020700,-0.041300,-0.020700,-0.020700,-0.041300,0.0*
1,1,0.041339,-0.020700,-0.020700*
1,1,0.041339,0.020700,-0.020700*
1,1,0.041339,0.020700,0.020700*
1,1,0.041339,-0.020700,0.020700*
%
%ADD10C,0.010000*%
%ADD11R,0.098425X0.098425*%
%ADD12R,0.137795X0.137795*%
%ADD13R,0.118110X0.118110*%
%ADD14C,0.118110*%
%ADD15R,0.137795X0.137795*%
%ADD16R,0.078740X0.098425*%
%ADD17O,0.118110X0.078740*%
%ADD18R,0.137795X0.078740*%
%ADD19R,0.098425X0.078740*%
%ADD20C,0.137795*%
%ADD21C,0.086614*%
%ADD22C,0.082677*%
G04~CAMADD=23~8~0.0~0.0~826.8~826.8~206.7~0.0~15~0.0~0.0~0.0~0.0~0~0.0~0.0~0.0~0.0~0~0.0~0.0~0.0~180.0~826.0~826.0*
%ADD23D23*%
%ADD24O,0.088582X0.062992*%
%ADD25C,0.137795*%
%LNpcb1_copper_signal_top-1*%
%LPD*%
G54D10*
X0Y0D02*
X0771D01*
X0Y03755D02*
X0771D01*
Y0D02*
Y03755D01*
X0Y0D02*
Y03755D01*
G54D11*
X01835Y02032D03*
Y0156D03*
X01355D03*
Y02032D03*
X01914Y01796D03*
G54D12*
X0201Y02345D03*
Y02561D03*
X01844D03*
Y02345D03*
G54D13*
X02195Y02363D03*
G54D14*
X01659Y02363D03*
X00883Y02325D03*
Y01789D03*
X06463Y02111D03*
X06999D03*
G54D15*
X00865Y0214D03*
X01081D03*
Y01975D03*
X00865D03*
G54D16*
X00975Y0101D03*
X00875D03*
X023D03*
X022D03*
X01877D03*
X01777D03*
X01455D03*
X01355D03*
G54D17*
X03014Y01575D03*
Y01675D03*
Y01875D03*
Y01475D03*
Y01975D03*
Y01775D03*
G54D18*
X02651Y01475D03*
Y01575D03*
Y01675D03*
Y01775D03*
Y01875D03*
Y01975D03*
Y02075D03*
Y02175D03*
X02338D03*
Y02075D03*
Y01975D03*
Y01875D03*
Y01775D03*
Y01675D03*
Y01575D03*
Y01475D03*
G54D19*
X00875Y01445D03*
Y01545D03*
G54D20*
X00502Y00704D03*
X03493Y0071D03*
X00499Y02831D03*
X03484Y02834D03*
X04097Y02567D03*
Y01071D03*
X07247Y01077D03*
X07246Y0257D03*
G54D21*
X04569Y01912D03*
Y01774D03*
Y01498D03*
Y01636D03*
G54D22*
X06648Y02093D03*
X06814Y0231D03*
Y02093D03*
G54D23*
X06648Y0231D03*
G54D24*
X06734Y016D03*
Y017D03*
G54D25*
X06164Y0158D03*
Y0188D03*
X04964Y0158D03*
Y0188D03*
M02*