%FSTAX23Y23*%
%MOIN*%
%SFA1B1*%

%IPPOS*%
%AMD23*
4,1,8,-0.020700,-0.041300,0.020700,-0.041300,0.041300,-0.020700,0.041300,0.020700,0.020700,0.041300,-0.020700,0.041300,-0.041300,0.020700,-0.041300,-0.020700,-0.020700,-0.041300,0.0*
1,1,0.041339,-0.020700,-0.020700*
1,1,0.041339,0.020700,-0.020700*
1,1,0.041339,0.020700,0.020700*
1,1,0.041339,-0.020700,0.020700*
%
%ADD10C,0.010000*%
%ADD11R,0.098425X0.098425*%
%ADD12R,0.137795X0.137795*%
%ADD13R,0.118110X0.118110*%
%ADD14C,0.118110*%
%ADD15R,0.137795X0.137795*%
%ADD16R,0.078740X0.098425*%
%ADD17O,0.118110X0.078740*%
%ADD18R,0.137795X0.078740*%
%ADD19R,0.098425X0.078740*%
%ADD20C,0.137795*%
%ADD21C,0.086614*%
%ADD22C,0.082677*%
G04~CAMADD=23~8~0.0~0.0~826.8~826.8~206.7~0.0~15~0.0~0.0~0.0~0.0~0~0.0~0.0~0.0~0.0~0~0.0~0.0~0.0~180.0~826.0~826.0*
%ADD23D23*%
%ADD24O,0.088582X0.062992*%
%ADD25C,0.137795*%
%ADD26R,0.078740X0.078740*%
%ADD27R,0.078740X0.078740*%
%ADD28C,0.027559*%
%LNpcb1_copper_signal_bot-1*%
%LPD*%
G36*
X03286Y02695D02*
X03257D01*
X03257Y02669*
X03286Y02644*
Y02624*
X0328*
X03257Y02644*
X03257Y02669*
X03255Y02671*
Y02645*
X03257Y02644*
X03257Y02643*
X03256Y02641*
X03256Y02639*
X03256Y02637*
X03255Y02636*
X03255Y02635*
X03255Y02634*
X03254Y02634*
X03254Y02633*
X03253Y02632*
X03252Y02631*
X03251Y02629*
X0325Y02628*
X03249Y02628*
X03248Y02627*
X03247Y02627*
X03247Y02627*
X03246Y02626*
X03244Y02625*
X03242Y02625*
X03241Y02624*
X0324Y02624*
X03239Y02624*
X03238*
X03238*
X03215*
X03213Y02624*
X03211Y02624*
X0321Y02625*
X03208Y02625*
X03207Y02626*
X03206Y02626*
X03206Y02627*
X03205Y02627*
X03204Y02628*
X03203Y02629*
X03201Y0263*
X032Y02631*
X032Y02632*
X03199Y02633*
X03199Y02633*
X03199Y02633*
X03198Y02635*
X03197Y02637*
X03197Y02638*
X03196Y0264*
X03196Y02641*
X03196Y02642*
Y02715*
X03286*
Y02695*
G37*
G36*
Y02592D02*
X03226D01*
X03263Y0256*
X03226Y02529*
X03286*
Y0251*
X03196*
Y0253*
X03232Y0256*
X03196Y02591*
Y02611*
X03286*
Y02592*
G37*
G36*
X03216Y02464D02*
X03286D01*
Y02444*
X03216*
Y02409*
X03196*
Y02499*
X03216*
Y02464*
G37*
G36*
X04449Y0235D02*
X04424D01*
X0442Y02355*
Y02294*
X044*
Y02384*
X0442*
X04449Y0235*
G37*
G36*
X06308Y02294D02*
X06289D01*
Y02354*
X06257Y02317*
X06226Y02354*
Y02294*
X06207*
Y02384*
X06227*
X06257Y02348*
X06288Y02384*
X06308*
Y02294*
G37*
G36*
X05699Y02294D02*
X05679D01*
Y02354*
X05648Y02317*
X05617Y02354*
Y02294*
X05597*
Y02384*
X05618*
X05648Y02348*
X05679Y02384*
X05699*
Y02294*
G37*
G36*
X04519D02*
X04502D01*
X0445Y02384*
X04472*
X0451Y02319*
X04548Y02384*
X04571*
X04519Y02294*
G37*
G36*
X03306Y02311D02*
X03286D01*
Y02399*
X03306*
Y02311*
G37*
G36*
X06412Y02294D02*
X06392D01*
Y02323*
X06366Y02323*
X06368Y02325*
X06342*
X06341Y02324*
X06366Y02323*
X06342Y02294*
X06321*
Y023*
X06341Y02324*
X0634Y02324*
X06338Y02324*
X06336Y02324*
X06335Y02324*
X06333Y02325*
X06332Y02325*
X06331Y02326*
X06331Y02326*
X06331Y02326*
X06329Y02327*
X06328Y02328*
X06327Y02329*
X06326Y0233*
X06325Y02331*
X06324Y02332*
X06324Y02333*
X06324Y02333*
X06323Y02335*
X06322Y02336*
X06322Y02338*
X06322Y02339*
X06321Y0234*
X06321Y02341*
Y02342*
Y02342*
Y02366*
X06321Y02367*
X06322Y02369*
X06322Y02371*
X06323Y02372*
X06323Y02373*
X06324Y02374*
X06324Y02375*
X06324Y02375*
X06325Y02376*
X06326Y02378*
X06327Y02379*
X06328Y0238*
X06329Y0238*
X0633Y02381*
X06331Y02381*
X06331Y02382*
X06332Y02382*
X06334Y02383*
X06335Y02383*
X06337Y02384*
X06338Y02384*
X06339Y02384*
X06412*
Y02294*
G37*
G36*
X06196Y02365D02*
X06161D01*
Y02294*
X06141*
Y02365*
X06106*
Y02384*
X06196*
Y02365*
G37*
G36*
X05976Y02384D02*
X05978Y02384D01*
X05979Y02383*
X05981Y02383*
X05982Y02382*
X05983Y02382*
X05983Y02382*
X05983Y02382*
X05985Y02381*
X05986Y0238*
X05987Y02379*
X05988Y02377*
X05989Y02376*
X0599Y02376*
X0599Y02375*
X0599Y02375*
X05991Y02373*
X05992Y02372*
X05992Y0237*
X05992Y02369*
X05992Y02367*
X05993Y02367*
Y02366*
Y02366*
Y02312*
X05992Y02311*
X05992Y02309*
X05992Y02307*
X05991Y02306*
X05991Y02305*
X0599Y02304*
X0599Y02303*
X0599Y02303*
X05989Y02302*
X05988Y023*
X05987Y02299*
X05986Y02298*
X05985Y02297*
X05984Y02297*
X05984Y02297*
X05983Y02296*
X05982Y02296*
X0598Y02295*
X05979Y02295*
X05977Y02294*
X05976Y02294*
X05975Y02294*
X05902*
Y02313*
X05969*
X0597Y02314*
X05971Y02314*
X05972Y02314*
X05972Y02314*
X05973Y02315*
X05973Y02316*
X05973Y02317*
Y02317*
Y02317*
Y02361*
X05973Y02362*
X05973Y02363*
X05972Y02363*
X05972Y02364*
X05971Y02364*
X0597Y02364*
X05969Y02365*
X05902*
Y02384*
X05974*
X05976Y02384*
G37*
G36*
X05894Y02365D02*
X05858D01*
Y02294*
X05839*
Y02365*
X05803*
Y02384*
X05894*
Y02365*
G37*
G36*
X05799D02*
X05763D01*
Y02294*
X05744*
Y02365*
X05708*
Y02384*
X05799*
Y02365*
G37*
G36*
X05478Y02294D02*
X05388D01*
Y02313*
X05459*
Y02384*
X05478*
Y02294*
G37*
G36*
X05364Y02384D02*
X05366Y02384D01*
X05368Y02383*
X05369Y02383*
X0537Y02382*
X05371Y02382*
X05371Y02382*
X05372Y02382*
X05373Y02381*
X05374Y0238*
X05376Y02379*
X05377Y02377*
X05377Y02376*
X05378Y02376*
X05378Y02375*
X05378Y02375*
X05379Y02373*
X0538Y02372*
X0538Y0237*
X05381Y02369*
X05381Y02367*
X05381Y02367*
Y02366*
Y02366*
Y02312*
X05381Y02311*
X05381Y02309*
X0538Y02307*
X0538Y02306*
X05379Y02305*
X05379Y02304*
X05379Y02303*
X05378Y02303*
X05377Y02302*
X05376Y023*
X05375Y02299*
X05374Y02298*
X05373Y02297*
X05372Y02297*
X05372Y02297*
X05372Y02296*
X0537Y02296*
X05368Y02295*
X05367Y02295*
X05365Y02294*
X05364Y02294*
X05363Y02294*
X05309*
X05307Y02294*
X05305Y02294*
X05304Y02295*
X05302Y02295*
X05301Y02296*
X053Y02296*
X053Y02296*
X053Y02296*
X05298Y02297*
X05297Y02298*
X05296Y023*
X05295Y02301*
X05294Y02302*
X05294Y02302*
X05293Y02303*
X05293Y02303*
X05292Y02305*
X05292Y02306*
X05291Y02308*
X05291Y02309*
X05291Y02311*
X05291Y02311*
Y02312*
Y02312*
Y02366*
X05291Y02367*
X05291Y02369*
X05291Y02371*
X05292Y02372*
X05292Y02373*
X05293Y02374*
X05293Y02375*
X05293Y02375*
X05294Y02376*
X05295Y02378*
X05296Y02379*
X05297Y0238*
X05298Y02381*
X05299Y02381*
X053Y02382*
X053Y02382*
X05301Y02383*
X05303Y02383*
X05305Y02384*
X05306Y02384*
X05307Y02384*
X05308Y02384*
X05362*
X05364Y02384*
G37*
G36*
X0526D02*
X05262Y02384D01*
X05263Y02383*
X05265Y02383*
X05266Y02382*
X05266Y02382*
X05267Y02382*
X05267Y02382*
X05269Y02381*
X0527Y0238*
X05271Y02379*
X05272Y02377*
X05273Y02376*
X05273Y02376*
X05274Y02375*
X05274Y02375*
X05275Y02373*
X05275Y02372*
X05276Y0237*
X05276Y02369*
X05276Y02367*
X05276Y02367*
Y02366*
Y02366*
Y02294*
X05257*
Y02323*
X05206*
Y02294*
X05186*
Y02366*
X05186Y02367*
X05186Y02369*
X05187Y02371*
X05187Y02372*
X05188Y02373*
X05188Y02374*
X05189Y02375*
X05189Y02375*
X0519Y02376*
X05191Y02378*
X05192Y02379*
X05193Y0238*
X05194Y02381*
X05195Y02381*
X05195Y02382*
X05195Y02382*
X05197Y02383*
X05199Y02383*
X052Y02384*
X05202Y02384*
X05203Y02384*
X05204Y02384*
X05258*
X0526Y02384*
G37*
G36*
X05172Y02294D02*
X051D01*
X05098Y02294*
X05096Y02294*
X05095Y02295*
X05093Y02295*
X05092Y02296*
X05091Y02296*
X05091Y02296*
X0509Y02296*
X05089Y02297*
X05088Y02298*
X05086Y023*
X05085Y02301*
X05085Y02302*
X05084Y02302*
X05084Y02303*
X05084Y02303*
X05083Y02305*
X05082Y02306*
X05082Y02308*
X05081Y02309*
X05081Y02311*
X05081Y02311*
Y02312*
Y02312*
Y02366*
X05081Y02367*
X05082Y02369*
X05082Y02371*
X05082Y02372*
X05083Y02373*
X05083Y02374*
X05084Y02375*
X05084Y02375*
X05085Y02376*
X05086Y02378*
X05087Y02379*
X05088Y0238*
X05089Y02381*
X0509Y02381*
X0509Y02382*
X0509Y02382*
X05092Y02383*
X05094Y02383*
X05095Y02384*
X05097Y02384*
X05098Y02384*
X05099Y02384*
X05172*
Y02294*
G37*
G36*
X0505Y02384D02*
X05052Y02384D01*
X05054Y02383*
X05055Y02383*
X05056Y02382*
X05057Y02382*
X05058Y02382*
X05058Y02382*
X05059Y02381*
X05061Y0238*
X05062Y02379*
X05063Y02377*
X05064Y02376*
X05064Y02376*
X05064Y02375*
X05065Y02375*
X05065Y02373*
X05066Y02372*
X05066Y0237*
X05067Y02369*
X05067Y02367*
X05067Y02367*
Y02366*
Y02366*
Y02312*
X05067Y02311*
X05067Y02309*
X05066Y02307*
X05066Y02306*
X05065Y02305*
X05065Y02304*
X05065Y02303*
X05065Y02303*
X05064Y02302*
X05062Y023*
X05061Y02299*
X0506Y02298*
X05059Y02297*
X05059Y02297*
X05058Y02297*
X05058Y02296*
X05056Y02296*
X05055Y02295*
X05053Y02295*
X05052Y02294*
X0505Y02294*
X05049Y02294*
X04977*
Y02313*
X05043*
X05045Y02314*
X05046Y02314*
X05046Y02314*
X05047Y02314*
X05047Y02315*
X05048Y02316*
X05048Y02317*
Y02317*
Y02317*
Y02361*
X05048Y02362*
X05047Y02363*
X05047Y02363*
X05047Y02364*
X05046Y02364*
X05045Y02364*
X05044Y02365*
X04977*
Y02384*
X05048*
X0505Y02384*
G37*
G36*
X04964Y02294D02*
X0488D01*
Y02313*
X04944*
Y02329*
X04892*
Y02349*
X04944*
Y02365*
X0488*
Y02384*
X04964*
Y02294*
G37*
G36*
X04868D02*
X04777D01*
Y02313*
X04848*
Y02384*
X04868*
Y02294*
G37*
G36*
X0477D02*
X04679D01*
Y02313*
X0475*
Y02384*
X0477*
Y02294*
G37*
G36*
X04393D02*
X04374D01*
Y02313*
X04393*
Y02294*
G37*
G36*
X04347Y02384D02*
X04349Y02384D01*
X04351Y02383*
X04352Y02383*
X04353Y02382*
X04354Y02382*
X04355Y02382*
X04355Y02382*
X04356Y02381*
X04358Y02379*
X04359Y02378*
X0436Y02377*
X0436Y02376*
X04361Y02375*
X04361Y02375*
X04361Y02375*
X04362Y02373*
X04363Y02372*
X04363Y0237*
X04364Y02369*
X04364Y02367*
X04364Y02366*
Y02366*
Y02366*
Y02313*
X04364Y02311*
X04363Y0231*
X04363Y02308*
X04363Y02307*
X04362Y02306*
X04362Y02305*
X04361Y02304*
X04361Y02304*
X0436Y02302*
X04359Y02301*
X04358Y023*
X04357Y02299*
X04356Y02298*
X04355Y02297*
X04355Y02297*
X04355Y02297*
X04353Y02296*
X04352Y02295*
X0435Y02295*
X04348Y02294*
X04347Y02294*
X04346Y02294*
X04293*
X04292Y02294*
X0429Y02294*
X04288Y02295*
X04287Y02295*
X04286Y02296*
X04285Y02296*
X04284Y02297*
X04284Y02297*
X04283Y02298*
X04281Y02299*
X0428Y023*
X04279Y02301*
X04279Y02302*
X04278Y02303*
X04278Y02304*
X04278Y02304*
X04277Y02306*
X04276Y02307*
X04276Y02309*
X04275Y0231*
X04275Y02312*
X04275Y02313*
Y02313*
Y02313*
Y02366*
X04275Y02367*
X04275Y02369*
X04276Y02371*
X04276Y02372*
X04277Y02373*
X04277Y02374*
X04278Y02375*
X04278Y02375*
X04279Y02376*
X0428Y02378*
X04281Y02379*
X04282Y0238*
X04283Y02381*
X04284Y02381*
X04284Y02382*
X04284Y02382*
X04286Y02383*
X04287Y02383*
X04289Y02384*
X0429Y02384*
X04292Y02384*
X04293Y02384*
X04345*
X04347Y02384*
G37*
G36*
X06097Y02274D02*
X06008D01*
Y02294*
X06097*
Y02274*
G37*
G36*
X05583D02*
X05494D01*
Y02294*
X05583*
Y02274*
G37*
G36*
X04672D02*
X04584D01*
Y02294*
X04672*
Y02274*
G37*
G36*
X0327Y02295D02*
X03271Y02295D01*
X03273Y02295*
X03274Y02294*
X03276Y02294*
X03276Y02293*
X03277Y02293*
X03277Y02293*
X03279Y02292*
X0328Y02291*
X03281Y0229*
X03282Y02288*
X03283Y02288*
X03283Y02287*
X03284Y02286*
X03284Y02286*
X03285Y02285*
X03285Y02283*
X03286Y02281*
X03286Y0228*
X03286Y02279*
X03286Y02278*
Y02205*
X03267*
Y02272*
X03267Y02273*
X03266Y02274*
X03266Y02275*
X03266Y02275*
X03265Y02276*
X03264Y02276*
X03263Y02276*
X03263*
X03263*
X0322*
X03218Y02276*
X03217Y02275*
X03217Y02275*
X03217Y02275*
X03216Y02274*
X03216Y02273*
X03216Y02272*
Y02205*
X03196*
Y02277*
X03196Y02279*
X03196Y0228*
X03197Y02282*
X03197Y02283*
X03198Y02285*
X03198Y02285*
X03198Y02286*
X03198Y02286*
X032Y02288*
X03201Y02289*
X03202Y0229*
X03203Y02291*
X03204Y02292*
X03205Y02292*
X03205Y02293*
X03205Y02293*
X03207Y02294*
X03208Y02294*
X0321Y02295*
X03211Y02295*
X03213Y02295*
X03214Y02295*
X03214*
X03214*
X03268*
X0327Y02295*
G37*
G36*
X03216Y02161D02*
X03286D01*
Y02142*
X03216*
Y02106*
X03196*
Y02197*
X03216*
Y02161*
G37*
G36*
Y02066D02*
X03286D01*
Y02046*
X03216*
Y02011*
X03196*
Y02101*
X03216*
Y02066*
G37*
G36*
X03286Y01982D02*
X03226D01*
X03263Y01951*
X03226Y0192*
X03286*
Y019*
X03196*
Y0192*
X03232Y01951*
X03196Y01981*
Y02002*
X03286*
Y01982*
G37*
G36*
X01429Y01823D02*
X01426Y0182D01*
X00945*
X00944Y01822*
X00936Y01833*
X00927Y01843*
X00915Y01851*
X00903Y01856*
X00889Y01859*
X00876*
X00862Y01856*
X0085Y01851*
X00839Y01843*
X00829Y01833*
X00821Y01822*
X0082Y0182*
X00715*
Y02045*
X0119*
Y0206*
X01215Y02085*
X01425*
X01429Y01823*
G37*
G36*
X03306Y01796D02*
X03286D01*
Y01885*
X03306*
Y01796*
G37*
G36*
X01755Y02005D02*
X0175Y0196D01*
X01986Y01962*
X0199Y01959*
Y0172*
X01735*
X01635Y0182*
X01444*
X0144Y01823*
X0144Y01823*
X01435Y02085*
X01434Y02087*
X01434Y02088*
X01434Y02088*
X01434Y02089*
X01433Y0209*
X01432Y02092*
X01432Y02092*
X01432Y02092*
X0143Y02093*
X01428Y02094*
X01428Y02094*
X01428Y02094*
X01426Y02094*
X01425Y02095*
X01215*
X01211Y02094*
X01207Y02092*
X01182Y02067*
X0118Y02063*
X01179Y0206*
Y02055*
X00715*
Y0224*
X0152*
X01755Y02005*
G37*
G36*
X0327Y01781D02*
X03271Y01781D01*
X03273Y0178*
X03274Y0178*
X03276Y01779*
X03276Y01779*
X03277Y01779*
X03277Y01779*
X03279Y01778*
X0328Y01777*
X03281Y01775*
X03282Y01774*
X03283Y01773*
X03283Y01773*
X03284Y01772*
X03284Y01772*
X03285Y0177*
X03285Y01769*
X03286Y01767*
X03286Y01766*
X03286Y01764*
X03286Y01763*
Y01691*
X03267*
Y01758*
X03267Y01759*
X03266Y0176*
X03266Y0176*
X03266Y01761*
X03265Y01761*
X03264Y01762*
X03263Y01762*
X03263*
X03263*
X0322*
X03218Y01762*
X03217Y01761*
X03217Y01761*
X03217Y01761*
X03216Y0176*
X03216Y01759*
X03216Y01758*
Y01691*
X03196*
Y01763*
X03196Y01764*
X03196Y01766*
X03197Y01768*
X03197Y01769*
X03198Y0177*
X03198Y01771*
X03198Y01772*
X03198Y01772*
X032Y01773*
X03201Y01775*
X03202Y01776*
X03203Y01777*
X03204Y01778*
X03205Y01778*
X03205Y01779*
X03205Y01779*
X03207Y01779*
X03208Y0178*
X0321Y0178*
X03211Y01781*
X03213Y01781*
X03214Y01781*
X03214*
X03214*
X03268*
X0327Y01781*
G37*
G36*
X03286Y01587D02*
X03267D01*
Y01658*
X03196*
Y01678*
X03286*
Y01587*
G37*
G36*
Y0156D02*
X03257D01*
Y01509*
X03286*
Y01489*
X03214*
X03213Y0149*
X03211Y0149*
X03209Y0149*
X03208Y01491*
X03207Y01491*
X03206Y01492*
X03205Y01492*
X03205Y01492*
X03204Y01493*
X03202Y01494*
X03201Y01495*
X032Y01496*
X032Y01497*
X03199Y01498*
X03199Y01499*
X03198Y01499*
X03198Y015*
X03197Y01502*
X03197Y01504*
X03196Y01505*
X03196Y01506*
X03196Y01507*
Y01561*
X03196Y01563*
X03196Y01565*
X03197Y01567*
X03197Y01568*
X03198Y01569*
X03198Y0157*
X03198Y01571*
X03198Y01571*
X032Y01572*
X03201Y01573*
X03202Y01575*
X03203Y01576*
X03204Y01576*
X03205Y01577*
X03205Y01577*
X03205Y01577*
X03207Y01578*
X03208Y01579*
X0321Y01579*
X03211Y0158*
X03213Y0158*
X03214Y0158*
X03214*
X03214*
X03286*
Y0156*
G37*
G36*
Y01456D02*
X03226D01*
X03263Y01424*
X03226Y01393*
X03286*
Y01374*
X03196*
Y01394*
X03232Y01424*
X03196Y01455*
Y01475*
X03286*
Y01456*
G37*
G36*
Y01339D02*
X03257D01*
X03257Y01287*
X03256Y01285*
X03256Y01283*
X03256Y01282*
X03255Y0128*
X03255Y01279*
X03255Y01278*
X03254Y01278*
X03254Y01278*
X03253Y01276*
X03252Y01275*
X03251Y01274*
X0325Y01273*
X03249Y01272*
X03248Y01271*
X03247Y01271*
X03247Y01271*
X03246Y0127*
X03244Y01269*
X03242Y01269*
X03241Y01269*
X0324Y01268*
X03239Y01268*
X03238*
X03238*
X03215*
X03213Y01268*
X03211Y01269*
X0321Y01269*
X03208Y0127*
X03207Y0127*
X03206Y01271*
X03206Y01271*
X03205Y01271*
X03204Y01272*
X03203Y01273*
X03201Y01274*
X032Y01275*
X032Y01276*
X03199Y01277*
X03199Y01277*
X03199Y01278*
X03198Y01279*
X03197Y01281*
X03197Y01282*
X03196Y01284*
X03196Y01285*
X03196Y01286*
Y01359*
X03286*
Y01339*
G37*
G36*
X03306Y01171D02*
X03286D01*
Y0126*
X03306*
Y01171*
G37*
G36*
X03286Y01106D02*
Y01089D01*
X03196Y01037*
Y0106*
X03262Y01098*
X03196Y01136*
Y01158*
X03286Y01106*
G37*
G36*
X0323Y01011D02*
X03225Y01007D01*
X03286*
Y00988*
X03196*
Y01007*
X0323Y01036*
Y01011*
G37*
G36*
X03286Y00961D02*
X03267D01*
Y00981*
X03286*
Y00961*
G37*
G36*
X03269Y00951D02*
X0327Y00951D01*
X03272Y0095*
X03273Y0095*
X03274Y00949*
X03275Y00949*
X03276Y00949*
X03276Y00949*
X03278Y00947*
X03279Y00946*
X0328Y00945*
X03282Y00944*
X03282Y00943*
X03283Y00943*
X03283Y00942*
X03284Y00942*
X03284Y0094*
X03285Y00939*
X03286Y00937*
X03286Y00936*
X03286Y00935*
X03286Y00934*
Y00881*
X03286Y00879*
X03286Y00877*
X03285Y00875*
X03285Y00874*
X03284Y00873*
X03284Y00872*
X03284Y00872*
X03284Y00872*
X03282Y0087*
X03281Y00869*
X0328Y00868*
X03279Y00867*
X03278Y00866*
X03277Y00865*
X03276Y00865*
X03276Y00865*
X03274Y00864*
X03273Y00863*
X03271Y00863*
X0327Y00862*
X03269Y00862*
X03268Y00862*
X03267*
X03267*
X03215*
X03213Y00862*
X03211Y00863*
X0321Y00863*
X03208Y00864*
X03207Y00864*
X03206Y00864*
X03206Y00865*
X03205Y00865*
X03204Y00866*
X03203Y00867*
X03201Y00868*
X032Y00869*
X032Y0087*
X03199Y00871*
X03199Y00871*
X03198Y00872*
X03198Y00873*
X03197Y00875*
X03197Y00876*
X03196Y00878*
X03196Y00879*
X03196Y0088*
Y00933*
X03196Y00935*
X03196Y00936*
X03197Y00938*
X03197Y00939*
X03198Y0094*
X03198Y00941*
X03198Y00942*
X03198Y00942*
X032Y00943*
X03201Y00945*
X03202Y00946*
X03203Y00947*
X03204Y00947*
X03205Y00948*
X03205Y00948*
X03205Y00949*
X03207Y00949*
X03209Y0095*
X0321Y0095*
X03212Y00951*
X03213Y00951*
X03214Y00951*
X03214*
X03215*
X03267*
X03269Y00951*
G37*
%LNpcb1_copper_signal_bot-2*%
%LPC*%
G36*
X03237Y02695D02*
X03216D01*
Y02644*
X03237*
Y02695*
G37*
G36*
X06392Y02365D02*
X06341D01*
Y02343*
X06392*
Y02365*
G37*
G36*
X05361D02*
X0531D01*
Y02313*
X05361*
Y02365*
G37*
G36*
X05257D02*
X05206D01*
Y02343*
X05257*
Y02365*
G37*
G36*
X05152D02*
X05101D01*
Y02313*
X05152*
Y02365*
G37*
G36*
X04345Y02364D02*
X04305D01*
X04345Y02331*
Y02364*
G37*
G36*
X04294Y02348D02*
Y02314D01*
X04334*
X04294Y02348*
G37*
G36*
X01914Y0182D02*
X01904Y01818D01*
X01896Y01813*
X01895Y01812*
X0189Y01804*
X01888Y01795*
X0189Y01785*
X01895Y01777*
X01903Y01772*
X01912Y0177*
X01922Y01772*
X01929Y01777*
X01931Y01779*
X01936Y01786*
X01938Y01796*
X01936Y01805*
X01931Y01813*
X01923Y01818*
X01914Y0182*
G37*
G36*
X03238Y0156D02*
X03216D01*
Y01509*
X03238*
Y0156*
G37*
G36*
X03237Y01339D02*
X03216D01*
Y01288*
X03237*
Y01339*
G37*
G36*
X03249Y00932D02*
X03216D01*
Y00892*
X03249Y00932*
G37*
G36*
X03266Y00922D02*
X03232Y00882D01*
X03266*
Y00922*
G37*
%LNpcb1_copper_signal_bot-3*%
%LPD*%
G54D10*
X0038Y0059D02*
X03608D01*
X0038Y02952D02*
X03608D01*
Y0059D02*
Y02952D01*
X0038Y0059D02*
Y02952D01*
X03979Y0096D02*
X07365D01*
X03979Y02692D02*
X07365D01*
Y0096D02*
Y02692D01*
X03979Y0096D02*
Y02692D01*
G54D11*
X01835Y02032D03*
Y0156D03*
X01355D03*
Y02032D03*
X01914Y01796D03*
G54D12*
X0201Y02345D03*
Y02561D03*
X01844D03*
Y02345D03*
G54D13*
X02195Y02363D03*
G54D14*
X01659Y02363D03*
X00883Y02325D03*
Y01789D03*
X06463Y02111D03*
X06999D03*
G54D15*
X00865Y0214D03*
X01081D03*
Y01975D03*
X00865D03*
G54D16*
X00975Y0101D03*
X00875D03*
X023D03*
X022D03*
X01877D03*
X01777D03*
X01455D03*
X01355D03*
G54D17*
X03014Y01575D03*
Y01675D03*
Y01875D03*
Y01475D03*
Y01975D03*
Y01775D03*
G54D18*
X02651Y01475D03*
Y01575D03*
Y01675D03*
Y01775D03*
Y01875D03*
Y01975D03*
Y02075D03*
Y02175D03*
X02338D03*
Y02075D03*
Y01975D03*
Y01875D03*
Y01775D03*
Y01675D03*
Y01575D03*
Y01475D03*
G54D19*
X00875Y01445D03*
Y01545D03*
G54D20*
X00502Y00704D03*
X03493Y0071D03*
X00499Y02831D03*
X03484Y02834D03*
X04097Y02567D03*
Y01071D03*
X07247Y01077D03*
X07246Y0257D03*
G54D21*
X04569Y01912D03*
Y01774D03*
Y01498D03*
Y01636D03*
G54D22*
X06648Y02093D03*
X06814Y0231D03*
Y02093D03*
G54D23*
X06648Y0231D03*
G54D24*
X06734Y016D03*
Y017D03*
G54D25*
X06164Y0158D03*
Y0188D03*
X04964Y0158D03*
Y0188D03*
G54D26*
X01835Y01365D03*
X01729D03*
G54D27*
X01354Y01365D03*
X01475D03*
G54D28*
X031Y02101D02*
X03116Y02085D01*
X031Y01775D02*
X03116Y01791D01*
X0291Y02101D02*
X031D01*
X03116Y01791D02*
Y02085D01*
X03014Y01775D02*
X031D01*
X02651Y01975D02*
X02783D01*
X0291Y02101*
X02776Y01875D02*
X02876Y01975D01*
X03014*
X02651Y01875D02*
X02776D01*
Y01775D02*
X02876Y01875D01*
X03014*
X02651Y01775D02*
X02776D01*
X02651Y01675D02*
X03014D01*
X02651Y01575D02*
X03014D01*
X02651Y01475D02*
X03014D01*
X02775Y02175D02*
X02806Y02206D01*
Y02228*
X02769Y02265D02*
X02806Y02228D01*
X02026Y02265D02*
X02769D01*
X02651Y02175D02*
X02775D01*
X01125Y01365D02*
X01354D01*
X00884Y01535D02*
X00954D01*
X01125Y01365*
X00875Y01545D02*
X00884Y01535D01*
X0201Y02281D02*
Y02561D01*
Y02281D02*
X02026Y02265D01*
X0215Y01975D02*
X02338D01*
X02045Y0187D02*
X0215Y01975D01*
X02045Y01695D02*
Y0187D01*
X022Y01875D02*
X02338D01*
X0209Y01258D02*
Y01765D01*
X022Y01875*
X00996Y01242D02*
X02073D01*
X0209Y01258*
X02102Y01205D02*
X02127Y0123D01*
X02133Y0113D02*
X02202Y01199D01*
X02117Y01167D02*
X02165Y01215D01*
X01839Y02175D02*
X02338D01*
X01839Y02037D02*
Y02175D01*
Y0234*
X01758Y00885D02*
X02183D01*
X00675Y01545D02*
D01*
X00875*
X00675Y00901D02*
Y01545D01*
X023Y01011D02*
Y01115D01*
X0226Y01155D02*
Y01458D01*
Y01155D02*
X023Y01115D01*
X0226Y01458D02*
X02276Y01475D01*
X02338*
X00675Y00901D02*
X00691Y00885D01*
X00891*
X00675Y01545D02*
Y02545D01*
X00691Y02561D02*
X01844D01*
X00675Y02545D02*
X00691Y02561D01*
X01839Y0234D02*
X01844Y02345D01*
X01835Y02032D02*
X01839Y02037D01*
X01844Y02345D02*
Y02561D01*
X01912Y01795D02*
X01914Y01796D01*
X02127Y01717D02*
X02185Y01775D01*
X02127Y0123D02*
Y01717D01*
X02185Y01775D02*
X02338D01*
X0191Y0156D02*
X02045Y01695D01*
X01835Y0156D02*
X0191D01*
X01835Y01365D02*
Y0156D01*
Y01365D02*
X01835D01*
X01835Y0156D02*
D01*
X02198Y01675D02*
X02338D01*
X02165Y01215D02*
Y01642D01*
X02198Y01675*
X00891Y00885D02*
X01371D01*
X00875Y00901D02*
Y0101D01*
Y00901D02*
X00891Y00885D01*
X00963Y01435D02*
X0098Y01419D01*
X00884Y01435D02*
X00963D01*
X0098Y01258D02*
Y01419D01*
X00975Y01185D02*
X00995Y01205D01*
X00975Y0101D02*
Y01185D01*
X00995Y01205D02*
X02102D01*
X01471Y01167D02*
X02117D01*
X01455Y0101D02*
Y01151D01*
X01471Y01167*
X0098Y01258D02*
X00996Y01242D01*
X01887Y01086D02*
X01931Y0113D01*
X02133*
X02202Y01199D02*
Y01558D01*
X02218Y01575D02*
X02338D01*
X02202Y01558D02*
X02218Y01575D01*
X00875Y01445D02*
X00884Y01435D01*
X01475Y01365D02*
X01729D01*
X01345Y01019D02*
X01355Y0101D01*
X01354Y01365D02*
X01355D01*
Y00901D02*
Y0101D01*
Y00901D02*
X01371Y00885D01*
X01758*
X01775Y00901*
Y01007*
X01777Y0101*
X02183Y00885D02*
X022Y00901D01*
Y0101*
X01877D02*
X01887Y01019D01*
Y01086*
X06869Y017D02*
X06919Y0165D01*
X04403Y01255D02*
X06903D01*
X06865Y01292D02*
X06881Y01308D01*
Y01583*
X06903Y01255D02*
X06919Y01271D01*
Y0165*
X06865Y016D02*
X06881Y01583D01*
X04441Y01292D02*
X06865D01*
X06734Y016D02*
X06865D01*
X04387Y01271D02*
X04403Y01255D01*
X04425Y01308D02*
X04441Y01292D01*
X04425Y01308D02*
Y01619D01*
X04387Y01271D02*
Y01708D01*
X04882Y01498D02*
X04964Y0158D01*
X04569Y01498D02*
X04882D01*
X04733Y01912D02*
X04765Y0188D01*
X04569Y01912D02*
X04733D01*
X04765Y0188D02*
X04964D01*
X0456Y01765D02*
X04569Y01774D01*
X04387Y01708D02*
X04444Y01765D01*
X0456*
X04441Y01636D02*
X04569D01*
X04425Y01619D02*
X04441Y01636D01*
X06734Y017D02*
X06869D01*
X06814Y02093D02*
Y0231D01*
X06648Y02118D02*
X0666Y02106D01*
X06648Y02118D02*
Y0231D01*
X06171Y01587D02*
X0628D01*
X06164Y0158D02*
X06171Y01587D01*
X06287Y0158D02*
X06353D01*
X0628Y01587D02*
X06287Y0158D01*
X06353D02*
X06593Y0182D01*
X06724*
X06814Y0191*
Y02093*
X06164Y0188D02*
X06174Y0187D01*
X06589*
X06648Y01929*
Y02093*
X04968Y01579D02*
X04969Y0158D01*
M02*