%FSTAX23Y23*%
%MOIN*%
%SFA1B1*%

%IPPOS*%
%ADD10R,0.098425X0.098425*%
%ADD11R,0.137795X0.137795*%
%ADD12R,0.118110X0.118110*%
%ADD13C,0.118110*%
%ADD14R,0.137795X0.137795*%
%ADD15R,0.078740X0.098425*%
%ADD16O,0.118110X0.078740*%
%ADD17R,0.137795X0.078740*%
%ADD18R,0.098425X0.078740*%
%ADD19C,0.137795*%
%ADD20R,0.078740X0.078740*%
%ADD21R,0.078740X0.078740*%
%ADD22C,0.010000*%
%ADD23C,0.027559*%
%LNclamp_pcb_copper_signal_bot-1*%
%LPD*%
G36*
X01049Y01233D02*
X01046Y0123D01*
X00565*
X00564Y01232*
X00556Y01243*
X00547Y01253*
X00535Y01261*
X00523Y01266*
X00509Y01269*
X00496*
X00482Y01266*
X0047Y01261*
X00459Y01253*
X00449Y01243*
X00441Y01232*
X0044Y0123*
X00335*
Y01455*
X0081*
Y0147*
X00835Y01495*
X01045*
X01049Y01233*
G37*
G36*
X01375Y01415D02*
X0137Y0137D01*
X01606Y01372*
X0161Y01369*
Y0113*
X01355*
X01255Y0123*
X01064*
X0106Y01233*
X0106Y01233*
X01055Y01495*
X01054Y01497*
X01054Y01498*
X01054Y01498*
X01054Y01499*
X01053Y015*
X01052Y01502*
X01052Y01502*
X01052Y01502*
X0105Y01503*
X01048Y01504*
X01048Y01504*
X01048Y01504*
X01046Y01504*
X01045Y01505*
X00835*
X00831Y01504*
X00827Y01502*
X00802Y01477*
X008Y01473*
X00799Y0147*
Y01465*
X00335*
Y0165*
X0114*
X01375Y01415*
G37*
G36*
X01898Y01921D02*
X01884D01*
X01879Y01926*
Y01885*
X01869*
Y01941*
X01881*
X01898Y01921*
G37*
G36*
X02882Y01885D02*
X02871D01*
Y01926*
X0285Y01901*
X02828Y01926*
Y01885*
X02818*
Y01941*
X02829*
X0285Y01917*
X0287Y01941*
X02882*
Y01885*
G37*
G36*
X02501D02*
X0249D01*
Y01926*
X02469Y01901*
X02447Y01926*
Y01885*
X02437*
Y01941*
X02449*
X02469Y01917*
X02489Y01941*
X02501*
Y01885*
G37*
G36*
X02172D02*
X02161D01*
Y01926*
X0214Y01901*
X02118Y01926*
Y01885*
X02108*
Y01941*
X0212*
X0214Y01917*
X0216Y01941*
X02172*
Y01885*
G37*
G36*
X02946D02*
X02936D01*
Y01904*
X02918Y01904*
X02901Y01885*
X0289*
X0289Y01888*
X02904Y01904*
X02918Y01904*
X02918Y01905*
X02905*
X02904Y01904*
X02901Y01904*
X029Y01904*
X02899Y01904*
X02898Y01905*
X02897Y01905*
X02896Y01905*
X02896Y01905*
X02895Y01905*
X02895Y01906*
X02894Y01906*
X02894Y01907*
X02893Y01907*
X02892Y01908*
X02892Y01909*
X02892Y01909*
X02891Y0191*
X02891Y0191*
X02891Y01911*
X02891Y01912*
X0289Y01912*
X0289Y01913*
X0289Y01914*
X0289Y01915*
Y01915*
Y01915*
Y0193*
X0289Y01931*
X0289Y01932*
X0289Y01933*
X02891Y01934*
X02891Y01935*
X02891Y01935*
X02891Y01936*
X02891Y01936*
X02892Y01937*
X02893Y01937*
X02893Y01938*
X02894Y01939*
X02894Y01939*
X02895Y01939*
X02895Y0194*
X02895Y0194*
X02896Y0194*
X02897Y01941*
X02898Y01941*
X02899Y01941*
X029Y01941*
X029Y01941*
X02946*
Y01885*
G37*
G36*
X01941D02*
X01932D01*
X01899Y01941*
X01911*
X01936Y01897*
X01962Y01941*
X01974*
X01941Y01885*
G37*
G36*
X02812Y01931D02*
X02789Y01931D01*
Y01885*
X02778*
X02778Y01931*
X02755Y01931*
Y01941*
X02812*
Y01931*
G37*
G36*
X02675Y01941D02*
X02676Y01941D01*
X02676Y01941*
X02677Y01941*
X02678Y0194*
X02679Y0194*
X02679Y0194*
X02679Y0194*
X0268Y01939*
X02681Y01939*
X02681Y01938*
X02682Y01937*
X02682Y01937*
X02683Y01936*
X02683Y01936*
X02683Y01936*
X02683Y01935*
X02684Y01934*
X02684Y01933*
X02684Y01932*
X02684Y01931*
X02684Y01931*
Y01931*
Y0193*
Y01896*
X02684Y01895*
X02684Y01894*
X02684Y01893*
X02684Y01892*
X02683Y01891*
X02683Y01891*
X02683Y0189*
X02683Y0189*
X02682Y01889*
X02682Y01889*
X02681Y01888*
X0268Y01887*
X0268Y01887*
X02679Y01887*
X02679Y01886*
X02679Y01886*
X02678Y01886*
X02677Y01885*
X02676Y01885*
X02675Y01885*
X02675Y01885*
X02674Y01885*
X02628*
Y01895*
X02671*
X02672Y01895*
X02673Y01896*
X02673Y01896*
X02673Y01896*
X02674Y01897*
X02674Y01897*
X02674Y01898*
Y01898*
Y01898*
Y01928*
X02674Y01929*
X02674Y0193*
X02673Y0193*
X02673Y0193*
X02673Y01931*
X02672Y01931*
X02671Y01931*
X02628*
Y01941*
X02673*
X02675Y01941*
G37*
G36*
X02623Y01931D02*
X026Y01931D01*
Y01885*
X02589*
X02589Y01931*
X02566Y01931*
Y01941*
X02623*
Y01931*
G37*
G36*
X02563D02*
X0254Y01931D01*
Y01885*
X0253*
X0253Y01931*
X02507Y01931*
Y01941*
X02563*
Y01931*
G37*
G36*
X02353Y01941D02*
X02354Y01941D01*
X02355Y01941*
X02356Y01941*
X02357Y0194*
X02357Y0194*
X02358Y0194*
X02358Y0194*
X02358Y01939*
X02359Y01939*
X0236Y01938*
X0236Y01937*
X02361Y01937*
X02361Y01936*
X02361Y01936*
X02362Y01936*
X02362Y01935*
X02362Y01934*
X02363Y01933*
X02363Y01932*
X02363Y01931*
X02363Y01931*
Y01931*
Y0193*
Y01896*
X02363Y01895*
X02363Y01894*
X02363Y01893*
X02362Y01892*
X02362Y01891*
X02362Y01891*
X02362Y0189*
X02362Y0189*
X02361Y01889*
X0236Y01889*
X0236Y01888*
X02359Y01887*
X02358Y01887*
X02358Y01887*
X02358Y01886*
X02358Y01886*
X02357Y01886*
X02356Y01885*
X02355Y01885*
X02354Y01885*
X02353Y01885*
X02353Y01885*
X02307*
Y01895*
X0235*
X02351Y01895*
X02351Y01896*
X02352Y01896*
X02352Y01896*
X02352Y01897*
X02353Y01897*
X02353Y01898*
Y01898*
Y01898*
Y01928*
X02353Y01929*
X02352Y0193*
X02352Y0193*
X02352Y0193*
X02351Y01931*
X02351Y01931*
X0235Y01931*
X02307*
Y01941*
X02352*
X02353Y01941*
G37*
G36*
X02298Y01885D02*
X02242D01*
Y01895*
X02288*
Y01941*
X02298*
Y01885*
G37*
G36*
X02227Y01941D02*
X02228Y01941D01*
X02229Y01941*
X0223Y01941*
X02231Y0194*
X02231Y0194*
X02232Y0194*
X02232Y0194*
X02233Y01939*
X02233Y01939*
X02234Y01938*
X02235Y01937*
X02235Y01937*
X02235Y01936*
X02236Y01936*
X02236Y01936*
X02236Y01935*
X02237Y01934*
X02237Y01933*
X02237Y01932*
X02237Y01931*
X02237Y01931*
Y01931*
Y0193*
Y01885*
X02227*
Y01904*
X02191*
Y01885*
X02181*
Y0193*
X02181Y01931*
X02181Y01933*
X02181Y01933*
X02181Y01934*
X02182Y01935*
X02182Y01935*
X02182Y01936*
X02182Y01936*
X02183Y01937*
X02183Y01937*
X02184Y01938*
X02185Y01939*
X02185Y01939*
X02186Y0194*
X02186Y0194*
X02186Y0194*
X02187Y0194*
X02188Y01941*
X02189Y01941*
X0219Y01941*
X02191Y01941*
X02191Y01941*
X02226*
X02227Y01941*
G37*
G36*
X02099Y01885D02*
X02089D01*
Y01904*
X02053Y01904*
X02052Y01904*
X02051Y01904*
X0205Y01905*
X0205Y01905*
X02049Y01905*
X02048Y01905*
X02048Y01905*
X02048Y01906*
X02047Y01906*
X02046Y01907*
X02046Y01907*
X02045Y01908*
X02045Y01909*
X02044Y01909*
X02044Y0191*
X02044Y0191*
X02043Y01911*
X02043Y01912*
X02043Y01912*
X02043Y01913*
X02043Y01914*
X02042Y01915*
Y01915*
Y01915*
Y0193*
X02043Y01931*
X02043Y01932*
X02043Y01933*
X02043Y01934*
X02043Y01935*
X02044Y01935*
X02044Y01936*
X02044Y01936*
X02045Y01937*
X02045Y01937*
X02046Y01938*
X02046Y01939*
X02047Y01939*
X02048Y01939*
X02048Y0194*
X02048Y0194*
X02049Y0194*
X0205Y01941*
X02051Y01941*
X02052Y01941*
X02052Y01941*
X02053Y01941*
X02099*
Y01885*
G37*
G36*
X01863D02*
X01852D01*
X01852Y01895*
X01863Y01895*
Y01885*
G37*
G36*
X01835Y01941D02*
X01836Y01941D01*
X01837Y01941*
X01838Y01941*
X01838Y0194*
X01839Y0194*
X01839Y0194*
X01839Y0194*
X0184Y01939*
X01841Y01938*
X01842Y01938*
X01842Y01937*
X01843Y01937*
X01843Y01936*
X01843Y01936*
X01843Y01936*
X01844Y01935*
X01844Y01934*
X01844Y01933*
X01845Y01932*
X01845Y01931*
X01845Y01931*
Y0193*
Y0193*
Y01896*
X01845Y01895*
X01844Y01894*
X01844Y01893*
X01844Y01892*
X01844Y01892*
X01843Y01891*
X01843Y01891*
X01843Y01891*
X01843Y0189*
X01842Y01889*
X01841Y01888*
X01841Y01888*
X0184Y01887*
X0184Y01887*
X01839Y01886*
X01839Y01886*
X01838Y01886*
X01837Y01885*
X01836Y01885*
X01836Y01885*
X01835Y01885*
X01834Y01885*
X018*
X01799Y01885*
X01797Y01885*
X01797Y01885*
X01796Y01886*
X01795Y01886*
X01795Y01886*
X01794Y01886*
X01794Y01886*
X01793Y01887*
X01793Y01888*
X01792Y01888*
X01791Y01889*
X01791Y0189*
X0179Y0189*
X0179Y0189*
X0179Y01891*
X0179Y01892*
X01789Y01893*
X01789Y01893*
X01789Y01894*
X01789Y01895*
X01789Y01896*
Y01896*
Y01896*
Y0193*
X01789Y01931*
X01789Y01932*
X01789Y01933*
X01789Y01934*
X0179Y01935*
X0179Y01935*
X0179Y01936*
X0179Y01936*
X01791Y01937*
X01791Y01937*
X01792Y01938*
X01793Y01939*
X01793Y01939*
X01794Y0194*
X01794Y0194*
X01794Y0194*
X01795Y0194*
X01796Y01941*
X01797Y01941*
X01798Y01941*
X01799Y01941*
X01799Y01941*
X01834*
X01835Y01941*
G37*
G36*
X02749Y01875D02*
X02693D01*
Y01885*
X02749*
Y01875*
G37*
G36*
X02428D02*
X02372D01*
Y01885*
X02428*
Y01875*
G37*
G36*
X02037D02*
X01981D01*
Y01885*
X02037*
Y01875*
G37*
%LNclamp_pcb_copper_signal_bot-2*%
%LPC*%
G36*
X01534Y0123D02*
X01524Y01228D01*
X01516Y01223*
X01515Y01222*
X0151Y01214*
X01508Y01205*
X0151Y01195*
X01515Y01187*
X01523Y01182*
X01532Y0118*
X01542Y01182*
X01549Y01187*
X01551Y01189*
X01556Y01196*
X01558Y01206*
X01556Y01215*
X01551Y01223*
X01543Y01228*
X01534Y0123*
G37*
G36*
X02935Y01931D02*
X02901D01*
X02901Y01931*
X02901Y01931*
X02901Y01931*
X029Y0193*
X029Y0193*
Y0193*
Y0193*
Y01916*
X029Y01915*
X029Y01915*
X02901Y01915*
X02901Y01915*
X02901Y01915*
X02935*
X02936Y01915*
X02936Y01915*
X02936*
X02936Y01915*
X02936Y01915*
Y01915*
Y01916*
Y0193*
X02936Y0193*
X02936Y0193*
X02936Y01931*
Y01931*
X02936Y01931*
X02935Y01931*
G37*
G36*
X02226D02*
X02192D01*
X02192Y01931*
X02192Y01931*
X02191*
X02191Y0193*
X02191Y0193*
Y0193*
Y0193*
Y01914*
X02227*
Y0193*
X02227Y0193*
X02227Y01931*
X02227Y01931*
Y01931*
X02226Y01931*
G37*
G36*
X02088D02*
X02054D01*
X02053Y01931*
X02053Y01931*
X02053Y01931*
X02053Y0193*
X02053Y0193*
Y0193*
Y0193*
Y01916*
X02053Y01915*
X02053Y01915*
X02053Y01915*
X02053Y01915*
X02053Y01915*
X02088*
X02088Y01915*
X02088Y01915*
X02088*
X02089Y01915*
X02089Y01915*
Y01915*
Y01916*
Y0193*
X02089Y0193*
X02088Y0193*
X02088Y01931*
Y01931*
X02088Y01931*
X02088Y01931*
G37*
G36*
X01834Y01931D02*
X01804D01*
X01834Y01905*
Y0193*
X01834Y0193*
X01834Y0193*
X01834Y0193*
Y01931*
X01834Y01931*
X01834Y01931*
G37*
G36*
X01799Y01921D02*
Y01897D01*
X01799Y01896*
X01799Y01896*
X01799Y01896*
X01799Y01896*
X01799Y01896*
X018Y01896*
X0183*
X01799Y01921*
G37*
%LNclamp_pcb_copper_signal_bot-3*%
%LPD*%
G54D10*
X01455Y01442D03*
Y0097D03*
X00975D03*
Y01442D03*
X01534Y01206D03*
G54D11*
X0163Y01755D03*
Y01971D03*
X01464D03*
Y01755D03*
G54D12*
X01815Y01773D03*
G54D13*
X01279Y01773D03*
X00503Y01735D03*
Y01199D03*
G54D14*
X00485Y0155D03*
X00701D03*
Y01385D03*
X00485D03*
G54D15*
X00595Y0042D03*
X00495D03*
X0192D03*
X0182D03*
X01497D03*
X01397D03*
X01075D03*
X00975D03*
G54D16*
X0276Y00985D03*
Y01085D03*
Y01285D03*
Y00885D03*
Y01385D03*
Y01185D03*
G54D17*
X02271Y00885D03*
Y00985D03*
Y01085D03*
Y01185D03*
Y01285D03*
Y01385D03*
Y01485D03*
Y01585D03*
X01958D03*
Y01485D03*
Y01385D03*
Y01285D03*
Y01185D03*
Y01085D03*
Y00985D03*
Y00885D03*
G54D18*
X00495Y00855D03*
Y00955D03*
G54D19*
X00122Y00114D03*
X03113Y0012D03*
X00119Y02241D03*
X03104Y02244D03*
G54D20*
X01455Y00775D03*
X01349D03*
G54D21*
X00974Y00775D03*
X01095D03*
G54D22*
X0Y0D02*
X03228D01*
X0Y02362D02*
X03228D01*
Y0D02*
Y02362D01*
X0Y0D02*
Y02362D01*
G54D23*
X02395Y01585D02*
X02426Y01616D01*
Y01638*
X02389Y01675D02*
X02426Y01638D01*
X01646Y01675D02*
X02389D01*
X02271Y01585D02*
X02395D01*
X025Y01455D02*
X02908D01*
X02925Y01438*
X02908Y01185D02*
X02925Y01201D01*
X0276Y01185D02*
X02908D01*
X02925Y01201D02*
Y01438D01*
X00745Y00775D02*
X00974D01*
X00504Y00945D02*
X00574D01*
X00745Y00775*
X00495Y00955D02*
X00504Y00945D01*
X0163Y01691D02*
Y01971D01*
Y01691D02*
X01646Y01675D01*
X0177Y01385D02*
X01958D01*
X01665Y0128D02*
X0177Y01385D01*
X01665Y01105D02*
Y0128D01*
X0182Y01285D02*
X01958D01*
X0171Y00668D02*
Y01175D01*
X0182Y01285*
X00616Y00652D02*
X01693D01*
X0171Y00668*
X01722Y00615D02*
X01747Y0064D01*
X01753Y0054D02*
X01822Y00609D01*
X01737Y00577D02*
X01785Y00625D01*
X01459Y01585D02*
X01958D01*
X01459Y01447D02*
Y01585D01*
Y0175*
X01378Y00295D02*
X01803D01*
X00295Y00955D02*
D01*
X00495*
X00295Y00311D02*
Y00955D01*
X0249Y01185D02*
X0259Y01285D01*
X02271Y01185D02*
X0249D01*
X0259Y01285D02*
X0276D01*
X0192Y00421D02*
Y00525D01*
X0188Y00565D02*
Y00868D01*
Y00565D02*
X0192Y00525D01*
X0188Y00868D02*
X01896Y00885D01*
X01958*
X00295Y00311D02*
X00311Y00295D01*
X00511*
X00295Y00955D02*
Y01955D01*
X00311Y01971D02*
X01464D01*
X00295Y01955D02*
X00311Y01971D01*
X01459Y0175D02*
X01464Y01755D01*
X01455Y01442D02*
X01459Y01447D01*
X01464Y01755D02*
Y01971D01*
X01532Y01205D02*
X01534Y01206D01*
X01747Y01127D02*
X01805Y01185D01*
X01747Y0064D02*
Y01127D01*
X01805Y01185D02*
X01958D01*
X0153Y0097D02*
X01665Y01105D01*
X01455Y0097D02*
X0153D01*
X01455Y00775D02*
Y0097D01*
Y00775D02*
X01455D01*
X01455Y0097D02*
D01*
X01818Y01085D02*
X01958D01*
X01785Y00625D02*
Y01052D01*
X01818Y01085*
X02271Y01385D02*
X0243D01*
X025Y01455*
X02271Y01285D02*
X0248D01*
X0258Y01385*
X0276*
X00511Y00295D02*
X00991D01*
X00495Y00311D02*
Y0042D01*
Y00311D02*
X00511Y00295D01*
X00583Y00845D02*
X006Y00829D01*
X00504Y00845D02*
X00583D01*
X006Y00668D02*
Y00829D01*
X00595Y00595D02*
X00615Y00615D01*
X00595Y0042D02*
Y00595D01*
X00615Y00615D02*
X01722D01*
X01091Y00577D02*
X01737D01*
X01075Y0042D02*
Y00561D01*
X01091Y00577*
X006Y00668D02*
X00616Y00652D01*
X01507Y00496D02*
X01551Y0054D01*
X01753*
X01822Y00609D02*
Y00968D01*
X01838Y00985D02*
X01958D01*
X01822Y00968D02*
X01838Y00985D01*
X00495Y00855D02*
X00504Y00845D01*
X01095Y00775D02*
X01349D01*
X00965Y00429D02*
X00975Y0042D01*
X00974Y00775D02*
X00975D01*
Y00311D02*
Y0042D01*
Y00311D02*
X00991Y00295D01*
X01378*
X01395Y00311*
Y00417*
X01397Y0042*
X01803Y00295D02*
X0182Y00311D01*
Y0042*
X01497D02*
X01507Y00429D01*
Y00496*
X02271Y01085D02*
X0276D01*
X02271Y00985D02*
X0276D01*
X02271Y00885D02*
X0276D01*
M02*