%FSTAX23Y23*%
%MOIN*%
%SFA1B1*%

%IPPOS*%
%AMD13*
4,1,8,-0.020700,-0.041300,0.020700,-0.041300,0.041300,-0.020700,0.041300,0.020700,0.020700,0.041300,-0.020700,0.041300,-0.041300,0.020700,-0.041300,-0.020700,-0.020700,-0.041300,0.0*
1,1,0.041339,-0.020700,-0.020700*
1,1,0.041339,0.020700,-0.020700*
1,1,0.041339,0.020700,0.020700*
1,1,0.041339,-0.020700,0.020700*
%
%ADD10C,0.086614*%
%ADD11C,0.118110*%
%ADD12C,0.082677*%
G04~CAMADD=13~8~0.0~0.0~826.8~826.8~206.7~0.0~15~0.0~0.0~0.0~0.0~0~0.0~0.0~0.0~0.0~0~0.0~0.0~0.0~180.0~826.0~826.0*
%ADD13D13*%
%ADD14O,0.088582X0.062992*%
%ADD15C,0.137795*%
%ADD16C,0.137795*%
%ADD17C,0.027559*%
%LNloadcell_pcb_copper_signal_bot-1*%
%LPD*%
G36*
X0047Y0139D02*
X00444D01*
X0044Y01395*
Y01334*
X00421*
Y01424*
X00441*
X0047Y0139*
G37*
G36*
X02329Y01334D02*
X0231D01*
Y01394*
X02278Y01357*
X02247Y01394*
Y01334*
X02228*
Y01424*
X02248*
X02278Y01388*
X02309Y01424*
X02329*
Y01334*
G37*
G36*
X0172Y01334D02*
X017D01*
Y01394*
X01669Y01357*
X01638Y01394*
Y01334*
X01618*
Y01424*
X01638*
X01669Y01388*
X017Y01424*
X0172*
Y01334*
G37*
G36*
X00539D02*
X00523D01*
X00471Y01424*
X00493*
X00531Y01359*
X00569Y01424*
X00592*
X00539Y01334*
G37*
G36*
X02433Y01334D02*
X02413D01*
Y01363*
X02387Y01363*
X02389Y01365*
X02363*
X02362Y01364*
X02387Y01363*
X02362Y01334*
X02342*
Y0134*
X02362Y01364*
X02361Y01364*
X02359Y01364*
X02357Y01364*
X02356Y01364*
X02354Y01365*
X02353Y01365*
X02352Y01366*
X02352Y01366*
X02351Y01366*
X0235Y01367*
X02349Y01368*
X02348Y01369*
X02347Y0137*
X02346Y01371*
X02345Y01372*
X02345Y01373*
X02345Y01373*
X02344Y01375*
X02343Y01376*
X02343Y01378*
X02342Y01379*
X02342Y0138*
X02342Y01381*
Y01382*
Y01382*
Y01406*
X02342Y01407*
X02343Y01409*
X02343Y01411*
X02343Y01412*
X02344Y01413*
X02344Y01414*
X02345Y01415*
X02345Y01415*
X02346Y01416*
X02347Y01418*
X02348Y01419*
X02349Y0142*
X0235Y0142*
X02351Y01421*
X02351Y01421*
X02351Y01422*
X02353Y01422*
X02355Y01423*
X02356Y01423*
X02358Y01424*
X02359Y01424*
X0236Y01424*
X02433*
Y01334*
G37*
G36*
X02217Y01405D02*
X02182D01*
Y01334*
X02162*
Y01405*
X02127*
Y01424*
X02217*
Y01405*
G37*
G36*
X01997Y01424D02*
X01998Y01424D01*
X02Y01423*
X02001Y01423*
X02003Y01422*
X02003Y01422*
X02004Y01422*
X02004Y01422*
X02006Y01421*
X02007Y0142*
X02008Y01419*
X02009Y01417*
X0201Y01416*
X0201Y01416*
X02011Y01415*
X02011Y01415*
X02012Y01413*
X02012Y01412*
X02013Y0141*
X02013Y01409*
X02013Y01407*
X02013Y01407*
Y01406*
Y01406*
Y01352*
X02013Y01351*
X02013Y01349*
X02013Y01347*
X02012Y01346*
X02012Y01345*
X02011Y01344*
X02011Y01343*
X02011Y01343*
X0201Y01342*
X02009Y0134*
X02008Y01339*
X02007Y01338*
X02006Y01337*
X02005Y01337*
X02004Y01337*
X02004Y01336*
X02003Y01336*
X02001Y01335*
X01999Y01335*
X01998Y01334*
X01997Y01334*
X01996Y01334*
X01923*
Y01353*
X0199*
X01991Y01354*
X01992Y01354*
X01993Y01354*
X01993Y01354*
X01994Y01355*
X01994Y01356*
X01994Y01357*
Y01357*
Y01357*
Y01401*
X01994Y01402*
X01993Y01403*
X01993Y01403*
X01993Y01404*
X01992Y01404*
X01991Y01404*
X0199Y01405*
X01923*
Y01424*
X01995*
X01997Y01424*
G37*
G36*
X01915Y01405D02*
X01879D01*
Y01334*
X0186*
Y01405*
X01824*
Y01424*
X01915*
Y01405*
G37*
G36*
X01819D02*
X01784D01*
Y01334*
X01764*
Y01405*
X01729*
Y01424*
X01819*
Y01405*
G37*
G36*
X01499Y01334D02*
X01409D01*
Y01353*
X0148*
Y01424*
X01499*
Y01334*
G37*
G36*
X01385Y01424D02*
X01387Y01424D01*
X01388Y01423*
X0139Y01423*
X01391Y01422*
X01392Y01422*
X01392Y01422*
X01393Y01422*
X01394Y01421*
X01395Y0142*
X01396Y01419*
X01397Y01417*
X01398Y01416*
X01399Y01416*
X01399Y01415*
X01399Y01415*
X014Y01413*
X01401Y01412*
X01401Y0141*
X01401Y01409*
X01402Y01407*
X01402Y01407*
Y01406*
Y01406*
Y01352*
X01402Y01351*
X01401Y01349*
X01401Y01347*
X014Y01346*
X014Y01345*
X014Y01344*
X01399Y01343*
X01399Y01343*
X01398Y01342*
X01397Y0134*
X01396Y01339*
X01395Y01338*
X01394Y01337*
X01393Y01337*
X01393Y01337*
X01393Y01336*
X01391Y01336*
X01389Y01335*
X01388Y01335*
X01386Y01334*
X01385Y01334*
X01384Y01334*
X0133*
X01328Y01334*
X01326Y01334*
X01325Y01335*
X01323Y01335*
X01322Y01336*
X01321Y01336*
X01321Y01336*
X01321Y01336*
X01319Y01337*
X01318Y01338*
X01317Y0134*
X01316Y01341*
X01315Y01342*
X01314Y01342*
X01314Y01343*
X01314Y01343*
X01313Y01345*
X01312Y01346*
X01312Y01348*
X01312Y01349*
X01311Y01351*
X01311Y01351*
Y01352*
Y01352*
Y01406*
X01311Y01407*
X01312Y01409*
X01312Y01411*
X01313Y01412*
X01313Y01413*
X01314Y01414*
X01314Y01415*
X01314Y01415*
X01315Y01416*
X01316Y01418*
X01317Y01419*
X01318Y0142*
X01319Y01421*
X0132Y01421*
X01321Y01422*
X01321Y01422*
X01322Y01423*
X01324Y01423*
X01325Y01424*
X01327Y01424*
X01328Y01424*
X01329Y01424*
X01383*
X01385Y01424*
G37*
G36*
X01281D02*
X01282Y01424D01*
X01284Y01423*
X01285Y01423*
X01287Y01422*
X01287Y01422*
X01288Y01422*
X01288Y01422*
X0129Y01421*
X01291Y0142*
X01292Y01419*
X01293Y01417*
X01294Y01416*
X01294Y01416*
X01295Y01415*
X01295Y01415*
X01296Y01413*
X01296Y01412*
X01297Y0141*
X01297Y01409*
X01297Y01407*
X01297Y01407*
Y01406*
Y01406*
Y01334*
X01278*
Y01363*
X01227*
Y01334*
X01207*
Y01406*
X01207Y01407*
X01207Y01409*
X01208Y01411*
X01208Y01412*
X01209Y01413*
X01209Y01414*
X01209Y01415*
X0121Y01415*
X01211Y01416*
X01212Y01418*
X01213Y01419*
X01214Y0142*
X01215Y01421*
X01216Y01421*
X01216Y01422*
X01216Y01422*
X01218Y01423*
X01219Y01423*
X01221Y01424*
X01223Y01424*
X01224Y01424*
X01225Y01424*
X01279*
X01281Y01424*
G37*
G36*
X01192Y01334D02*
X01121D01*
X01119Y01334*
X01117Y01334*
X01115Y01335*
X01114Y01335*
X01113Y01336*
X01112Y01336*
X01111Y01336*
X01111Y01336*
X0111Y01337*
X01108Y01338*
X01107Y0134*
X01106Y01341*
X01106Y01342*
X01105Y01342*
X01105Y01343*
X01105Y01343*
X01104Y01345*
X01103Y01346*
X01103Y01348*
X01102Y01349*
X01102Y01351*
X01102Y01351*
Y01352*
Y01352*
Y01406*
X01102Y01407*
X01102Y01409*
X01103Y01411*
X01103Y01412*
X01104Y01413*
X01104Y01414*
X01104Y01415*
X01105Y01415*
X01106Y01416*
X01107Y01418*
X01108Y01419*
X01109Y0142*
X0111Y01421*
X01111Y01421*
X01111Y01422*
X01111Y01422*
X01113Y01423*
X01115Y01423*
X01116Y01424*
X01118Y01424*
X01119Y01424*
X0112Y01424*
X01192*
Y01334*
G37*
G36*
X01071Y01424D02*
X01073Y01424D01*
X01075Y01423*
X01076Y01423*
X01077Y01422*
X01078Y01422*
X01079Y01422*
X01079Y01422*
X0108Y01421*
X01081Y0142*
X01083Y01419*
X01084Y01417*
X01084Y01416*
X01085Y01416*
X01085Y01415*
X01085Y01415*
X01086Y01413*
X01087Y01412*
X01087Y0141*
X01088Y01409*
X01088Y01407*
X01088Y01407*
Y01406*
Y01406*
Y01352*
X01088Y01351*
X01088Y01349*
X01087Y01347*
X01087Y01346*
X01086Y01345*
X01086Y01344*
X01086Y01343*
X01085Y01343*
X01084Y01342*
X01083Y0134*
X01082Y01339*
X01081Y01338*
X0108Y01337*
X01079Y01337*
X01079Y01337*
X01079Y01336*
X01077Y01336*
X01075Y01335*
X01074Y01335*
X01072Y01334*
X01071Y01334*
X0107Y01334*
X00998*
Y01353*
X01064*
X01066Y01354*
X01067Y01354*
X01067Y01354*
X01067Y01354*
X01068Y01355*
X01068Y01356*
X01068Y01357*
Y01357*
Y01357*
Y01401*
X01068Y01402*
X01068Y01403*
X01068Y01403*
X01067Y01404*
X01066Y01404*
X01065Y01404*
X01065Y01405*
X00998*
Y01424*
X01069*
X01071Y01424*
G37*
G36*
X00984Y01334D02*
X00901D01*
Y01353*
X00965*
Y01369*
X00913*
Y01389*
X00965*
Y01405*
X00901*
Y01424*
X00984*
Y01334*
G37*
G36*
X00888D02*
X00798D01*
Y01353*
X00869*
Y01424*
X00888*
Y01334*
G37*
G36*
X00791D02*
X007D01*
Y01353*
X00771*
Y01424*
X00791*
Y01334*
G37*
G36*
X00414D02*
X00395D01*
Y01353*
X00414*
Y01334*
G37*
G36*
X00368Y01424D02*
X0037Y01424D01*
X00372Y01423*
X00373Y01423*
X00374Y01422*
X00375Y01422*
X00375Y01422*
X00376Y01422*
X00377Y01421*
X00378Y01419*
X00379Y01418*
X0038Y01417*
X00381Y01416*
X00382Y01415*
X00382Y01415*
X00382Y01415*
X00383Y01413*
X00384Y01412*
X00384Y0141*
X00384Y01409*
X00385Y01407*
X00385Y01406*
Y01406*
Y01406*
Y01353*
X00385Y01351*
X00384Y0135*
X00384Y01348*
X00383Y01347*
X00383Y01346*
X00383Y01345*
X00382Y01344*
X00382Y01344*
X00381Y01342*
X0038Y01341*
X00379Y0134*
X00378Y01339*
X00377Y01338*
X00376Y01337*
X00376Y01337*
X00376Y01337*
X00374Y01336*
X00372Y01335*
X00371Y01335*
X00369Y01334*
X00368Y01334*
X00367Y01334*
X00314*
X00312Y01334*
X00311Y01334*
X00309Y01335*
X00308Y01335*
X00307Y01336*
X00306Y01336*
X00305Y01337*
X00305Y01337*
X00304Y01338*
X00302Y01339*
X00301Y0134*
X003Y01341*
X003Y01342*
X00299Y01343*
X00299Y01344*
X00298Y01344*
X00298Y01346*
X00297Y01347*
X00297Y01349*
X00296Y0135*
X00296Y01352*
X00296Y01353*
Y01353*
Y01353*
Y01406*
X00296Y01407*
X00296Y01409*
X00297Y01411*
X00297Y01412*
X00298Y01413*
X00298Y01414*
X00298Y01415*
X00298Y01415*
X003Y01416*
X00301Y01418*
X00302Y01419*
X00303Y0142*
X00304Y01421*
X00305Y01421*
X00305Y01422*
X00305Y01422*
X00307Y01423*
X00308Y01423*
X0031Y01424*
X00311Y01424*
X00312Y01424*
X00313Y01424*
X00366*
X00368Y01424*
G37*
G36*
X02118Y01314D02*
X02029D01*
Y01334*
X02118*
Y01314*
G37*
G36*
X01603D02*
X01515D01*
Y01334*
X01603*
Y01314*
G37*
G36*
X00693D02*
X00604D01*
Y01334*
X00693*
Y01314*
G37*
%LNloadcell_pcb_copper_signal_bot-2*%
%LPC*%
G36*
X02413Y01405D02*
X02362D01*
Y01383*
X02413*
Y01405*
G37*
G36*
X01382D02*
X01331D01*
Y01353*
X01382*
Y01405*
G37*
G36*
X01278D02*
X01227D01*
Y01383*
X01278*
Y01405*
G37*
G36*
X01173D02*
X01122D01*
Y01353*
X01173*
Y01405*
G37*
G36*
X00366Y01404D02*
X00325D01*
X00366Y01371*
Y01404*
G37*
G36*
X00315Y01388D02*
Y01354D01*
X00355*
X00315Y01388*
G37*
%LNloadcell_pcb_copper_signal_bot-3*%
%LPD*%
G54D10*
X0059Y00952D03*
Y00814D03*
Y00538D03*
Y00676D03*
G54D11*
X02484Y01151D03*
X0302D03*
G54D12*
X02669Y01133D03*
X02835Y0135D03*
Y01133D03*
G54D13*
X02669Y0135D03*
G54D14*
X02755Y0064D03*
Y0074D03*
G54D15*
X02185Y0062D03*
Y0092D03*
X00985Y0062D03*
Y0092D03*
G54D16*
X00118Y01607D03*
Y00111D03*
X03267Y00117D03*
X03267Y0161D03*
G54D17*
X0289Y0074D02*
X0294Y0069D01*
X00424Y00295D02*
X02923D01*
X02886Y00332D02*
X02902Y00348D01*
Y00623*
X02923Y00295D02*
X0294Y00311D01*
Y0069*
X02886Y0064D02*
X02902Y00623D01*
X00462Y00332D02*
X02886D01*
X02755Y0064D02*
X02886D01*
X00408Y00311D02*
X00424Y00295D01*
X00445Y00348D02*
X00462Y00332D01*
X00445Y00348D02*
Y00659D01*
X00408Y00311D02*
Y00748D01*
X00903Y00538D02*
X00985Y0062D01*
X0059Y00538D02*
X00903D01*
X00754Y00952D02*
X00786Y0092D01*
X0059Y00952D02*
X00754D01*
X00786Y0092D02*
X00985D01*
X00581Y00805D02*
X0059Y00814D01*
X00408Y00748D02*
X00465Y00805D01*
X00581*
X00462Y00676D02*
X0059D01*
X00445Y00659D02*
X00462Y00676D01*
X02755Y0074D02*
X0289D01*
X02835Y01133D02*
Y0135D01*
X02669Y01158D02*
X0268Y01146D01*
X02669Y01158D02*
Y0135D01*
X02192Y00627D02*
X02301D01*
X02185Y0062D02*
X02192Y00627D01*
X02308Y0062D02*
X02374D01*
X02301Y00627D02*
X02308Y0062D01*
X02374D02*
X02614Y0086D01*
X02745*
X02835Y0095*
Y01133*
X02185Y0092D02*
X02195Y0091D01*
X0261*
X02669Y00969*
Y01133*
X00989Y00619D02*
X0099Y0062D01*
M02*