%FSTAX23Y23*%
%MOIN*%
%SFA1B1*%

%IPPOS*%
%AMD13*
4,1,8,-0.020700,-0.041300,0.020700,-0.041300,0.041300,-0.020700,0.041300,0.020700,0.020700,0.041300,-0.020700,0.041300,-0.041300,0.020700,-0.041300,-0.020700,-0.020700,-0.041300,0.0*
1,1,0.041339,-0.020700,-0.020700*
1,1,0.041339,0.020700,-0.020700*
1,1,0.041339,0.020700,0.020700*
1,1,0.041339,-0.020700,0.020700*
%
%ADD10O,0.088582X0.062992*%
%ADD11C,0.118110*%
%ADD12C,0.082677*%
G04~CAMADD=13~8~0.0~0.0~826.8~826.8~206.7~0.0~15~0.0~0.0~0.0~0.0~0~0.0~0.0~0.0~0.0~0~0.0~0.0~0.0~180.0~826.0~826.0*
%ADD13D13*%
%ADD14C,0.086614*%
%ADD15R,0.049212X0.064960*%
%ADD16C,0.027559*%
%LNlimitswitch_pcb_copper_signal_bot-1*%
%LPD*%
G54D10*
X0218Y03795D03*
Y03695D03*
Y04215D03*
Y04115D03*
Y04635D03*
Y04535D03*
Y03275D03*
Y03375D03*
G54D11*
X01349Y04423D03*
X01885D03*
G54D12*
X01534Y04405D03*
X017Y04621D03*
Y04405D03*
G54D13*
X01534Y04621D03*
G54D14*
X0141Y03653D03*
Y03791D03*
Y04067D03*
Y03929D03*
G54D15*
X01975Y04062D03*
X01864D03*
X01975Y03924D03*
X01864D03*
X01975Y03648D03*
X01864D03*
X01975Y03786D03*
X01864D03*
G54D16*
X02075Y04115D02*
Y04215D01*
X02071Y04118D02*
X02075Y04115D01*
X02071Y04118D02*
Y04215D01*
X01735D02*
X02071D01*
X02075D02*
Y04518D01*
X02091Y04535D02*
X0218D01*
X02075Y04518D02*
X02091Y04535D01*
X02361Y04215D02*
X02377Y04198D01*
X0218Y04215D02*
X02361D01*
X02377Y03088D02*
Y04198D01*
X0218Y03375D02*
X02283D01*
X023Y03163D02*
Y03358D01*
X02283Y03147D02*
X023Y03163D01*
X01516Y03147D02*
X02283D01*
Y03375D02*
X023Y03358D01*
X02398Y03035D02*
X02415Y03051D01*
X02303Y03795D02*
X02339Y03758D01*
X02398Y0464D02*
X02415Y04623D01*
Y03051D02*
Y04623D01*
X02323Y0311D02*
X02339Y03126D01*
X02361Y03072D02*
X02377Y03088D01*
X02339Y03126D02*
Y03758D01*
X01276Y03334D02*
Y03774D01*
X01501Y0311D02*
X02323D01*
X01313Y0335D02*
X01516Y03147D01*
X01276Y03334D02*
X01501Y0311D01*
X0147Y03035D02*
X02398D01*
X01238Y03319D02*
X01485Y03072D01*
X01313Y0335D02*
Y03636D01*
X01238Y03319D02*
Y03928D01*
X01485Y03072D02*
X02361D01*
X01201Y03303D02*
Y0405D01*
Y03303D02*
X0147Y03035D01*
X01975Y04062D02*
Y04161D01*
X01534Y0424D02*
X01597Y04177D01*
X017Y0425D02*
X01735Y04215D01*
X01958Y04177D02*
X01975Y04161D01*
X01597Y04177D02*
X01958D01*
X01534Y0424D02*
Y04405D01*
X02075Y03291D02*
X02091Y03275D01*
X0218*
X02075Y03291D02*
Y03711D01*
Y04115D02*
X0218D01*
X02075Y03711D02*
X02091Y03695D01*
X02075Y03711D02*
Y04115D01*
X02091Y03695D02*
X0218D01*
X017Y0425D02*
Y04405D01*
Y04621*
X01534Y04405D02*
Y04621D01*
X02185Y0464D02*
X02398D01*
X0218Y03795D02*
X02303D01*
X0218Y04635D02*
X02185Y0464D01*
X01292Y03791D02*
X0141D01*
X01276Y03774D02*
X01292Y03791D01*
X01329Y03653D02*
X0141D01*
X01313Y03636D02*
X01329Y03653D01*
X01201Y0405D02*
X01217Y04067D01*
X01238Y03928D02*
X01254Y03945D01*
X0141Y03653D02*
X01853D01*
X01217Y04067D02*
X0141D01*
X01254Y03945D02*
X01364D01*
X0141Y04067D02*
X01412Y04064D01*
X01862D02*
X01864Y04062D01*
X01412Y04064D02*
X01862D01*
X0141Y03929D02*
X01412Y03926D01*
X01862D02*
X01864Y03924D01*
X01412Y03926D02*
X01862D01*
X0141Y03791D02*
X01412Y03788D01*
X01862D02*
X01864Y03786D01*
X01412Y03788D02*
X01862D01*
X01853Y03653D02*
X01858Y03657D01*
X01364Y03945D02*
X01369Y0394D01*
X01398D02*
X0141Y03929D01*
X01369Y0394D02*
X01398D01*
X01975Y03924D02*
Y04062D01*
Y03786D02*
Y03924D01*
Y03648D02*
Y03786D01*
M02*