%TF.GenerationSoftware,Altium Limited,Altium Designer,23.1.1 (15)*%
G04 Layer_Physical_Order=2*
G04 Layer_Color=16711680*
%FSLAX45Y45*%
%MOMM*%
%TF.SameCoordinates,577F6362-1072-468E-9D62-096A069DAD50*%
%TF.FilePolarity,Positive*%
%TF.FileFunction,Copper,L2,Bot,Signal*%
%TF.Part,Single*%
G01*
G75*
%TA.AperFunction,ComponentPad*%
%ADD10R,2.50000X2.50000*%
%ADD11R,3.50000X3.50000*%
%ADD12R,3.00000X3.00000*%
%ADD13C,3.00000*%
%ADD14R,3.50000X3.50000*%
%ADD15R,2.00000X2.50000*%
%ADD16O,3.00000X2.00000*%
%ADD17R,3.50000X2.00000*%
%ADD18R,2.50000X2.00000*%
%TA.AperFunction,ViaPad*%
%ADD19C,3.50000*%
%TA.AperFunction,SMDPad,CuDef*%
%ADD20R,2.00000X2.00000*%
%ADD21R,2.00000X2.00000*%
%TA.AperFunction,NonConductor*%
%ADD22C,0.25400*%
%TA.AperFunction,Conductor*%
%ADD23C,0.70000*%
G36*
X2666829Y3133265D02*
X2657934Y3124200D01*
X1436147D01*
X1433337Y3130983D01*
X1414142Y3159711D01*
X1389711Y3184142D01*
X1360983Y3203338D01*
X1329062Y3216559D01*
X1295175Y3223300D01*
X1260625D01*
X1226738Y3216559D01*
X1194817Y3203338D01*
X1166089Y3184142D01*
X1141658Y3159711D01*
X1122463Y3130983D01*
X1119653Y3124200D01*
X850900D01*
Y3695700D01*
X2057400D01*
Y3733800D01*
X2120900Y3797300D01*
X2654300D01*
X2666829Y3133265D01*
D02*
G37*
G36*
X3492500Y3594100D02*
X3479800Y3479800D01*
X4080370Y3486513D01*
X4089400Y3477583D01*
Y2870200D01*
X3441700D01*
X3187700Y3124200D01*
X2702917D01*
X2693524Y3132780D01*
X2692722Y3133754D01*
X2680193Y3797788D01*
X2679165Y3802489D01*
X2678226Y3807211D01*
X2678088Y3807417D01*
X2678035Y3807660D01*
X2675288Y3811608D01*
X2672612Y3815612D01*
X2672406Y3815751D01*
X2672264Y3815955D01*
X2668215Y3818550D01*
X2664211Y3821226D01*
X2663966Y3821275D01*
X2663757Y3821409D01*
X2659021Y3822259D01*
X2654300Y3823198D01*
X2120900D01*
X2110989Y3821226D01*
X2102588Y3815612D01*
X2039088Y3752112D01*
X2033474Y3743711D01*
X2031502Y3733800D01*
Y3721598D01*
X850900D01*
Y4191000D01*
X2895600D01*
X3492500Y3594100D01*
D02*
G37*
G36*
X7383179Y5348179D02*
X7308198D01*
X7308033Y5282360D01*
X7383179Y5219212D01*
Y5168225D01*
X7366517D01*
X7307872Y5217824D01*
X7308033Y5282360D01*
X7303866Y5285862D01*
Y5221212D01*
X7307872Y5217824D01*
X7307865Y5215213D01*
X7307532Y5210548D01*
X7306865Y5205882D01*
X7305865Y5201883D01*
X7304533Y5198551D01*
X7303533Y5195551D01*
X7302533Y5193552D01*
X7301867Y5191886D01*
X7301533Y5191552D01*
X7298867Y5187887D01*
X7295868Y5184221D01*
X7293202Y5181555D01*
X7290203Y5178889D01*
X7287870Y5177223D01*
X7285871Y5175557D01*
X7284538Y5174890D01*
X7284204Y5174557D01*
X7279872Y5172224D01*
X7275873Y5170558D01*
X7271874Y5169558D01*
X7268208Y5168558D01*
X7265209Y5168225D01*
X7262543Y5167892D01*
X7261210D01*
X7260544D01*
X7201226D01*
X7196560Y5168225D01*
X7192228Y5168892D01*
X7188229Y5169891D01*
X7184896Y5171224D01*
X7181897Y5172557D01*
X7179898Y5173557D01*
X7178232Y5174224D01*
X7177898Y5174557D01*
X7173899Y5177223D01*
X7170567Y5179889D01*
X7167568Y5182555D01*
X7165235Y5185554D01*
X7163235Y5187887D01*
X7161569Y5189886D01*
X7160903Y5191219D01*
X7160569Y5191552D01*
X7158237Y5195551D01*
X7156570Y5199884D01*
X7155571Y5203549D01*
X7154571Y5207215D01*
X7154238Y5210548D01*
X7153904Y5212880D01*
Y5397500D01*
X7383179D01*
Y5348179D01*
D02*
G37*
G36*
Y5085246D02*
X7229552D01*
X7323861Y5005600D01*
X7229218Y4926620D01*
X7383179D01*
Y4876966D01*
X7153571D01*
Y4928287D01*
X7246547Y5005600D01*
X7153571Y5083580D01*
Y5134567D01*
X7383179D01*
Y5085246D01*
D02*
G37*
G36*
X7203558Y4759996D02*
X7383179D01*
Y4710342D01*
X7203558D01*
Y4620365D01*
X7153571D01*
Y4849973D01*
X7203558D01*
Y4759996D01*
D02*
G37*
G36*
X7432500Y4371762D02*
X7383512D01*
Y4597371D01*
X7432500D01*
Y4371762D01*
D02*
G37*
G36*
X7340857Y4332439D02*
X7345522Y4331773D01*
X7349521Y4330773D01*
X7352853Y4329440D01*
X7355853Y4328440D01*
X7357852Y4327440D01*
X7359518Y4326774D01*
X7359852Y4326441D01*
X7363517Y4323775D01*
X7366850Y4321109D01*
X7369849Y4318109D01*
X7372182Y4315443D01*
X7374181Y4313111D01*
X7375514Y4311111D01*
X7376514Y4309778D01*
X7376847Y4309445D01*
X7378847Y4305446D01*
X7380513Y4301114D01*
X7381513Y4297115D01*
X7382513Y4293449D01*
X7382846Y4290117D01*
X7383179Y4287784D01*
Y4103831D01*
X7333525D01*
Y4272788D01*
X7333192Y4276120D01*
X7332192Y4278786D01*
X7331192Y4280119D01*
X7330859Y4280786D01*
X7328526Y4282452D01*
X7325860Y4283118D01*
X7323861Y4283452D01*
X7323528D01*
X7323194D01*
X7213889D01*
X7210557Y4283118D01*
X7207891Y4282119D01*
X7206558Y4281119D01*
X7206224Y4280786D01*
X7204558Y4278120D01*
X7203892Y4275787D01*
X7203558Y4273454D01*
Y4103831D01*
X7153571D01*
Y4285451D01*
X7153904Y4290450D01*
X7154571Y4294782D01*
X7155571Y4298781D01*
X7156904Y4302447D01*
X7158237Y4305446D01*
X7159236Y4307446D01*
X7159903Y4309112D01*
X7160236Y4309445D01*
X7162902Y4313111D01*
X7165568Y4316443D01*
X7168234Y4319442D01*
X7171233Y4321775D01*
X7173566Y4323775D01*
X7175566Y4325108D01*
X7176899Y4326107D01*
X7177232Y4326441D01*
X7181231Y4328440D01*
X7185563Y4330106D01*
X7189229Y4331106D01*
X7192894Y4332106D01*
X7196227Y4332439D01*
X7198560Y4332772D01*
X7200226D01*
X7200892D01*
X7336191D01*
X7340857Y4332439D01*
D02*
G37*
G36*
X7203558Y3991860D02*
X7383179D01*
Y3942206D01*
X7203558D01*
Y3852229D01*
X7153571D01*
Y4081837D01*
X7203558D01*
Y3991860D01*
D02*
G37*
G36*
Y3749922D02*
X7383179D01*
Y3700268D01*
X7203558D01*
Y3610291D01*
X7153571D01*
Y3839899D01*
X7203558D01*
Y3749922D01*
D02*
G37*
G36*
X7383179Y3537309D02*
X7229552D01*
X7323861Y3457663D01*
X7229218Y3378683D01*
X7383179D01*
Y3329029D01*
X7153571D01*
Y3380350D01*
X7246547Y3457663D01*
X7153571Y3535643D01*
Y3586630D01*
X7383179D01*
Y3537309D01*
D02*
G37*
G36*
X7432500Y3065763D02*
X7383512D01*
Y3291372D01*
X7432500D01*
Y3065763D01*
D02*
G37*
G36*
X7340857Y3026440D02*
X7345522Y3025774D01*
X7349521Y3024774D01*
X7352853Y3023441D01*
X7355853Y3022441D01*
X7357852Y3021442D01*
X7359518Y3020775D01*
X7359852Y3020442D01*
X7363517Y3017776D01*
X7366850Y3015110D01*
X7369849Y3012111D01*
X7372182Y3009445D01*
X7374181Y3007112D01*
X7375514Y3005112D01*
X7376514Y3003779D01*
X7376847Y3003446D01*
X7378847Y2999447D01*
X7380513Y2995115D01*
X7381513Y2991116D01*
X7382513Y2987450D01*
X7382846Y2984118D01*
X7383179Y2981785D01*
Y2797832D01*
X7333525D01*
Y2966789D01*
X7333192Y2970121D01*
X7332192Y2972787D01*
X7331192Y2974120D01*
X7330859Y2974787D01*
X7328526Y2976453D01*
X7325860Y2977120D01*
X7323861Y2977453D01*
X7323528D01*
X7323194D01*
X7213889D01*
X7210557Y2977120D01*
X7207891Y2976120D01*
X7206558Y2975120D01*
X7206224Y2974787D01*
X7204558Y2972121D01*
X7203892Y2969788D01*
X7203558Y2967455D01*
Y2797832D01*
X7153571D01*
Y2979452D01*
X7153904Y2984451D01*
X7154571Y2988783D01*
X7155571Y2992782D01*
X7156904Y2996448D01*
X7158237Y2999447D01*
X7159236Y3001447D01*
X7159903Y3003113D01*
X7160236Y3003446D01*
X7162902Y3007112D01*
X7165568Y3010444D01*
X7168234Y3013444D01*
X7171233Y3015776D01*
X7173566Y3017776D01*
X7175566Y3019109D01*
X7176899Y3020109D01*
X7177232Y3020442D01*
X7181231Y3022441D01*
X7185563Y3024107D01*
X7189229Y3025107D01*
X7192894Y3026107D01*
X7196227Y3026440D01*
X7198560Y3026773D01*
X7200226D01*
X7200892D01*
X7336191D01*
X7340857Y3026440D01*
D02*
G37*
G36*
X7383179Y2534566D02*
X7333525D01*
Y2714853D01*
X7153238D01*
Y2764174D01*
X7383179D01*
Y2534566D01*
D02*
G37*
G36*
X7383179Y2466250D02*
X7309198D01*
Y2335950D01*
X7383179D01*
Y2285963D01*
X7200893D01*
X7196227Y2286296D01*
X7191562Y2286963D01*
X7187563Y2287963D01*
X7184230Y2289296D01*
X7181231Y2290629D01*
X7179232Y2291628D01*
X7177565Y2292295D01*
X7177232Y2292628D01*
X7173566Y2295294D01*
X7169901Y2297960D01*
X7167235Y2300626D01*
X7164569Y2303625D01*
X7162902Y2305958D01*
X7161236Y2307958D01*
X7160570Y2309291D01*
X7160236Y2309624D01*
X7157904Y2313623D01*
X7156237Y2317955D01*
X7155238Y2321954D01*
X7154238Y2325620D01*
X7153905Y2328952D01*
X7153571Y2331285D01*
Y2468250D01*
X7153905Y2473249D01*
X7154571Y2477581D01*
X7155571Y2481580D01*
X7156904Y2485245D01*
X7158237Y2488245D01*
X7159237Y2490244D01*
X7159903Y2491910D01*
X7160236Y2492244D01*
X7162902Y2495909D01*
X7165568Y2499242D01*
X7168234Y2502241D01*
X7171233Y2504574D01*
X7173566Y2506573D01*
X7175566Y2507906D01*
X7176899Y2508906D01*
X7177232Y2509239D01*
X7181231Y2511239D01*
X7185563Y2512905D01*
X7189229Y2513905D01*
X7192894Y2514905D01*
X7196227Y2515238D01*
X7198560Y2515571D01*
X7200226D01*
X7200892D01*
X7383179D01*
X7383179Y2466250D01*
D02*
G37*
G36*
Y2200318D02*
X7229552D01*
X7323861Y2120672D01*
X7229219Y2041692D01*
X7383179D01*
Y1992038D01*
X7153571D01*
Y2043359D01*
X7246548Y2120672D01*
X7153571Y2198652D01*
Y2249639D01*
X7383179D01*
Y2200318D01*
D02*
G37*
G36*
Y1904394D02*
X7308198D01*
X7307865Y1771428D01*
X7307532Y1766763D01*
X7306865Y1762097D01*
X7305866Y1758098D01*
X7304533Y1754766D01*
X7303533Y1751767D01*
X7302533Y1749767D01*
X7301867Y1748101D01*
X7301534Y1747768D01*
X7298868Y1744102D01*
X7295868Y1740436D01*
X7293202Y1737770D01*
X7290203Y1735104D01*
X7287870Y1733438D01*
X7285871Y1731772D01*
X7284538Y1731105D01*
X7284205Y1730772D01*
X7279872Y1728439D01*
X7275873Y1726773D01*
X7271874Y1725773D01*
X7268209Y1724774D01*
X7265209Y1724440D01*
X7262544Y1724107D01*
X7261211D01*
X7260544D01*
X7201226D01*
X7196560Y1724440D01*
X7192228Y1725107D01*
X7188229Y1726107D01*
X7184897Y1727440D01*
X7181897Y1728773D01*
X7179898Y1729772D01*
X7178232Y1730439D01*
X7177899Y1730772D01*
X7173900Y1733438D01*
X7170567Y1736104D01*
X7167568Y1738770D01*
X7165235Y1741769D01*
X7163236Y1744102D01*
X7161569Y1746101D01*
X7160903Y1747434D01*
X7160570Y1747768D01*
X7158237Y1751767D01*
X7156571Y1756099D01*
X7155571Y1759765D01*
X7154571Y1763430D01*
X7154238Y1766763D01*
X7153905Y1769096D01*
Y1953715D01*
X7383179D01*
Y1904394D01*
D02*
G37*
G36*
X7432500Y1476504D02*
X7383513D01*
Y1702113D01*
X7432500D01*
Y1476504D01*
D02*
G37*
G36*
X7383179Y1311213D02*
Y1269890D01*
X7153571Y1136924D01*
Y1194243D01*
X7320529Y1290551D01*
X7153571Y1386860D01*
Y1444179D01*
X7383179Y1311213D01*
D02*
G37*
G36*
X7241216Y1070274D02*
X7227886Y1059944D01*
X7383179D01*
Y1010956D01*
X7153571D01*
Y1061610D01*
X7241216Y1135258D01*
Y1070274D01*
D02*
G37*
G36*
X7383179Y944640D02*
X7334525D01*
Y993627D01*
X7383179D01*
Y944640D01*
D02*
G37*
G36*
X7338524Y917980D02*
X7342856Y917314D01*
X7346855Y916314D01*
X7350188Y914981D01*
X7353187Y913981D01*
X7355520Y912981D01*
X7356853Y912315D01*
X7357519Y911982D01*
X7361518Y909316D01*
X7365184Y906650D01*
X7368516Y903984D01*
X7371182Y901318D01*
X7373182Y898985D01*
X7374848Y896986D01*
X7375848Y895653D01*
X7376181Y895319D01*
X7378514Y891320D01*
X7380180Y886988D01*
X7381513Y882989D01*
X7382180Y879323D01*
X7382846Y876324D01*
X7383179Y873991D01*
Y739359D01*
X7382846Y734694D01*
X7382180Y730362D01*
X7380847Y726363D01*
X7379514Y723030D01*
X7378514Y720364D01*
X7377181Y718031D01*
X7376514Y716698D01*
X7376181Y716365D01*
X7373182Y712699D01*
X7370183Y709034D01*
X7367183Y706368D01*
X7364184Y703702D01*
X7361518Y702035D01*
X7359519Y700369D01*
X7357852Y699703D01*
X7357519Y699369D01*
X7353187Y697037D01*
X7349188Y695370D01*
X7345189Y694371D01*
X7341523Y693371D01*
X7338191Y693038D01*
X7335858Y692704D01*
X7334525D01*
X7333859D01*
X7201226D01*
X7196560Y693038D01*
X7192228Y693704D01*
X7188229Y694704D01*
X7184897Y696037D01*
X7181897Y697370D01*
X7179898Y698370D01*
X7178232Y699036D01*
X7177899Y699369D01*
X7173900Y702035D01*
X7170567Y704701D01*
X7167568Y707367D01*
X7164902Y710367D01*
X7162902Y712699D01*
X7161569Y714699D01*
X7160570Y716032D01*
X7160236Y716365D01*
X7157904Y720364D01*
X7156237Y724363D01*
X7155238Y728029D01*
X7154238Y731694D01*
X7153905Y734694D01*
X7153571Y737360D01*
Y871659D01*
X7153905Y876324D01*
X7154571Y880990D01*
X7155571Y884989D01*
X7156904Y888321D01*
X7158237Y891320D01*
X7159237Y893320D01*
X7159903Y894986D01*
X7160236Y895319D01*
X7162902Y898985D01*
X7165902Y902317D01*
X7168901Y904983D01*
X7171567Y907649D01*
X7173900Y909316D01*
X7175899Y910982D01*
X7177565Y911648D01*
X7177899Y911982D01*
X7181897Y913981D01*
X7185896Y915647D01*
X7189895Y916647D01*
X7193561Y917647D01*
X7196560Y917980D01*
X7199226Y918313D01*
X7200559D01*
X7201226D01*
X7333859D01*
X7338524Y917980D01*
D02*
G37*
%LPC*%
G36*
X3896500Y3125383D02*
X3872933Y3120696D01*
X3852954Y3107346D01*
X3849854Y3104246D01*
X3836504Y3084267D01*
X3831817Y3060700D01*
X3836504Y3037133D01*
X3849854Y3017154D01*
X3869833Y3003805D01*
X3893400Y2999117D01*
X3916967Y3003805D01*
X3936946Y3017154D01*
X3940046Y3020254D01*
X3953395Y3040233D01*
X3958083Y3063800D01*
X3953395Y3087367D01*
X3940046Y3107346D01*
X3920067Y3120696D01*
X3896500Y3125383D01*
D02*
G37*
G36*
X7257878Y5348179D02*
X7203558D01*
Y5217879D01*
X7257878D01*
Y5348179D01*
D02*
G37*
G36*
X7259544Y2466250D02*
X7203559D01*
Y2335950D01*
X7259544D01*
Y2466250D01*
D02*
G37*
G36*
X7257878Y1904394D02*
X7203559D01*
Y1774094D01*
X7257878D01*
Y1904394D01*
D02*
G37*
G36*
X7289203Y869659D02*
X7203892D01*
Y767685D01*
X7289203Y869659D01*
D02*
G37*
G36*
X7331526Y843333D02*
X7245881Y741692D01*
X7331526D01*
Y843333D01*
D02*
G37*
%LPD*%
D10*
X3696500Y3663800D02*
D03*
Y2463800D02*
D03*
X2476500D02*
D03*
Y3663800D02*
D03*
X3896500Y3063800D02*
D03*
D11*
X4140200Y4457700D02*
D03*
Y5007700D02*
D03*
X3720200D02*
D03*
Y4457700D02*
D03*
D12*
X4610200Y4503700D02*
D03*
D13*
X3250200D02*
D03*
X1277900Y4407900D02*
D03*
Y3047900D02*
D03*
D14*
X1231900Y3937900D02*
D03*
X1781900D02*
D03*
Y3517900D02*
D03*
X1231900D02*
D03*
D15*
X1511300Y1066800D02*
D03*
X1257300D02*
D03*
X4876800D02*
D03*
X4622800D02*
D03*
X3803650D02*
D03*
X3549650D02*
D03*
X2730500D02*
D03*
X2476500D02*
D03*
D16*
X6692500Y2501900D02*
D03*
Y2755900D02*
D03*
Y3263900D02*
D03*
Y2247900D02*
D03*
Y3517900D02*
D03*
Y3009900D02*
D03*
D17*
X5769100Y2247900D02*
D03*
Y2501900D02*
D03*
Y2755900D02*
D03*
Y3009900D02*
D03*
Y3263900D02*
D03*
Y3517900D02*
D03*
Y3771900D02*
D03*
Y4025900D02*
D03*
X4975100D02*
D03*
Y3771900D02*
D03*
Y3517900D02*
D03*
Y3263900D02*
D03*
Y3009900D02*
D03*
Y2755900D02*
D03*
Y2501900D02*
D03*
Y2247900D02*
D03*
D18*
X1257300Y2171700D02*
D03*
Y2425700D02*
D03*
D19*
X310000Y290000D02*
D03*
X7907500Y305000D02*
D03*
X302500Y5692500D02*
D03*
X7885000Y5700000D02*
D03*
D20*
X3696501Y1968500D02*
D03*
X3426501D02*
D03*
D21*
X2476499D02*
D03*
X2781499D02*
D03*
D22*
X0Y0D02*
X8200000D01*
X0Y6000000D02*
X8200000D01*
Y0D02*
Y6000000D01*
X0Y0D02*
Y6000000D01*
D23*
X6908995Y3840000D02*
X6950000Y3798995D01*
X6908995Y3009900D02*
X6950000Y3050905D01*
X6427500Y3840000D02*
X6908995D01*
X6950000Y3050905D02*
Y3798995D01*
X6692500Y3009900D02*
X6908995D01*
X5769100Y3517900D02*
X6105400D01*
X6427500Y3840000D01*
X6086274Y3263900D02*
X6340274Y3517900D01*
X6692500D01*
X5769100Y3263900D02*
X6086274D01*
Y3009900D02*
X6340274Y3263900D01*
X6692500D01*
X5769100Y3009900D02*
X6086274D01*
X5769100Y2755900D02*
X6692500D01*
X5769100Y2501900D02*
X6692500D01*
X5769100Y2247900D02*
X6692500D01*
X6083400Y4025900D02*
X6162255Y4104755D01*
Y4162745D01*
X6070500Y4254500D02*
X6162255Y4162745D01*
X4181205Y4254500D02*
X6070500D01*
X5769100Y4025900D02*
X6083400D01*
X1892300Y1968500D02*
X2476499D01*
X1282174Y2400826D02*
X1459974D01*
X1892300Y1968500D01*
X1257300Y2425700D02*
X1282174Y2400826D01*
X4140200Y4295505D02*
Y5007700D01*
Y4295505D02*
X4181205Y4254500D01*
X4495800Y3517900D02*
X4975100D01*
X4229100Y3251200D02*
X4495800Y3517900D01*
X4229100Y2806700D02*
Y3251200D01*
X4622800Y3263900D02*
X4975100D01*
X4343400Y1698806D02*
Y2984500D01*
X4622800Y3263900D01*
X1565005Y1657800D02*
X4302395D01*
X4343400Y1698806D01*
X4374111Y1562400D02*
X4438800Y1627089D01*
X4453143Y1371600D02*
X4629601Y1548058D01*
X4413627Y1467000D02*
X4534200Y1587574D01*
X3708350Y4025900D02*
X4975100D01*
X3708350Y3675650D02*
Y4025900D01*
Y4445850D01*
X3502295Y749300D02*
X4581795D01*
X749300Y2425700D02*
X749300Y2425700D01*
X1257300D01*
X749300Y790305D02*
Y2425700D01*
X4876800Y1071205D02*
Y1333500D01*
X4775200Y1435100D02*
Y2206895D01*
Y1435100D02*
X4876800Y1333500D01*
X4775200Y2206895D02*
X4816205Y2247900D01*
X4975100D01*
X749300Y790305D02*
X790305Y749300D01*
X1298305D01*
X749300Y2425700D02*
Y4966695D01*
X790305Y5007700D02*
X3720200D01*
X749300Y4966695D02*
X790305Y5007700D01*
X3708350Y4445850D02*
X3720200Y4457700D01*
X3696500Y3663800D02*
X3708350Y3675650D01*
X3720200Y4457700D02*
Y5007700D01*
X3893400Y3060700D02*
X3896500Y3063800D01*
X4438800Y2864000D02*
X4584700Y3009900D01*
X4438800Y1627089D02*
Y2864000D01*
X4584700Y3009900D02*
X4975100D01*
X3886200Y2463800D02*
X4229100Y2806700D01*
X3696500Y2463800D02*
X3886200D01*
X3696500Y1968500D02*
Y2463800D01*
Y1968500D02*
X3696501Y1968500D01*
X3696500Y2463800D02*
X3696500Y2463800D01*
X4617848Y2755900D02*
X4975100D01*
X4534200Y1587574D02*
Y2672253D01*
X4617848Y2755900D01*
X1298305Y749300D02*
X2517505D01*
X1257300Y790305D02*
Y1066800D01*
Y790305D02*
X1298305Y749300D01*
X1482995Y2146826D02*
X1524000Y2105821D01*
X1282174Y2146826D02*
X1482995D01*
X1524000Y1698806D02*
Y2105821D01*
X1511300Y1511300D02*
X1562400Y1562400D01*
X1511300Y1066800D02*
Y1511300D01*
X1562400Y1562400D02*
X4374111D01*
X2771505Y1467000D02*
X4413627D01*
X2730500Y1066800D02*
Y1425995D01*
X2771505Y1467000D01*
X1524000Y1698806D02*
X1565005Y1657800D01*
X3828524Y1260219D02*
X3939905Y1371600D01*
X4453143D01*
X4629601Y1548058D02*
Y2460895D01*
X4670606Y2501900D02*
X4975100D01*
X4629601Y2460895D02*
X4670606Y2501900D01*
X1257300Y2171700D02*
X1282174Y2146826D01*
X2781499Y1968500D02*
X3426501D01*
X2451626Y1091674D02*
X2476500Y1066800D01*
X2476499Y1968500D02*
X2476500Y1968500D01*
X2476500Y790305D02*
Y1066800D01*
Y790305D02*
X2517505Y749300D01*
X3502295D01*
X3543300Y790305D01*
Y1060450D01*
X3549650Y1066800D01*
X4581795Y749300D02*
X4622800Y790305D01*
Y1066800D01*
X3803650D02*
X3828524Y1091674D01*
Y1260219D01*
%TF.MD5,28bc55c96fc1237ed1eaa24b8053b2be*%
M02*
