%TF.GenerationSoftware,Altium Limited,Altium Designer,23.1.1 (15)*%
G04 Layer_Color=0*
%FSLAX45Y45*%
%MOMM*%
%TF.SameCoordinates,577F6362-1072-468E-9D62-096A069DAD50*%
%TF.FilePolarity,Positive*%
%TF.FileFunction,Plated,1,2,PTH,Drill*%
%TF.Part,Single*%
G01*
G75*
%TA.AperFunction,ComponentDrill*%
%ADD26C,1.20000*%
%ADD27C,1.32000*%
%ADD28C,1.40000*%
%ADD29C,1.40000*%
%ADD30C,1.20000*%
%ADD31C,0.78000*%
%TA.AperFunction,ViaDrill,NotFilled*%
%ADD32C,3.00000*%
D26*
X3696500Y3663800D02*
D03*
X2476500Y2463800D02*
D03*
Y3663800D02*
D03*
X3896500Y3063800D02*
D03*
X1257300Y2171700D02*
D03*
Y2425700D02*
D03*
D27*
X3696500Y2463800D02*
D03*
D28*
X4140200Y4457700D02*
D03*
Y5007700D02*
D03*
X3720200D02*
D03*
Y4457700D02*
D03*
D29*
X1231900Y3937900D02*
D03*
X1781900D02*
D03*
Y3517900D02*
D03*
X1231900D02*
D03*
D30*
X1511300Y1066800D02*
D03*
X1257300D02*
D03*
X4876800D02*
D03*
X4622800D02*
D03*
X3803650D02*
D03*
X3549650D02*
D03*
X2730500D02*
D03*
X2476500D02*
D03*
X6692500Y2501900D02*
D03*
Y2755900D02*
D03*
Y3263900D02*
D03*
Y2247900D02*
D03*
Y3517900D02*
D03*
Y3009900D02*
D03*
D31*
X5769100Y2247900D02*
D03*
Y2501900D02*
D03*
Y2755900D02*
D03*
Y3009900D02*
D03*
Y3263900D02*
D03*
Y3517900D02*
D03*
Y3771900D02*
D03*
Y4025900D02*
D03*
X4975100D02*
D03*
Y3771900D02*
D03*
Y3517900D02*
D03*
Y3263900D02*
D03*
Y3009900D02*
D03*
Y2755900D02*
D03*
Y2501900D02*
D03*
Y2247900D02*
D03*
D32*
X310000Y290000D02*
D03*
X7907500Y305000D02*
D03*
X302500Y5692500D02*
D03*
X7885000Y5700000D02*
D03*
%TF.MD5,b904c1e8caea68fd0e7ac536346f992c*%
M02*
