M48
;Layer_Color=9474304
;FILE_FORMAT=4:4
METRIC,LZ
;TYPE=PLATED
T1F00S00C0.7800
T2F00S00C1.2000
T3F00S00C1.2000
T4F00S00C1.3200
T5F00S00C1.4000
T6F00S00C3.0000
;TYPE=NON_PLATED
T7F00S00C3.0000
%
T01
X0049751Y0022479
Y0025019
Y0027559
Y0030099
Y0032639
Y0035179
Y0037719
X0057691
Y0035179
Y0032639
Y0030099
Y0027559
Y0025019
Y0022479
Y0040259
X0049751
T02
X0012573Y0010668
X0015113
X0024765
X0027305
X00354965
X00380365
X0012573Y0021717
Y0024257
X0046228Y0010668
X0048768
T03
X0024765Y0024638
Y0036638
X0036965
X0038965Y0030638
X0066925Y0030099
Y0027559
Y0025019
Y0022479
Y0032639
Y0035179
T04
X0036965Y0024638
T05
X0012319Y0035179
Y0039379
X0017819
Y0035179
X0041402Y0044577
Y0050077
X0037202
Y0044577
T06
X00031Y00029
X0079075Y000305
X007885Y0057
X0003025Y0056925
T07
X0012779Y0030479
X0046102Y0045037
X0032502
X0012779Y0044079
M30
