M48
;Layer_Color=9474304
;FILE_FORMAT=4:4
METRIC,LZ
;TYPE=PLATED
T1F00S00C0.7800
T2F00S00C0.9500
T3F00S00C1.1000
T4F00S00C1.2000
T5F00S00C1.2000
T6F00S00C1.2954
T7F00S00C1.3200
T8F00S00C1.4000
T9F00S00C3.0000
;TYPE=NON_PLATED
T10F00S00C3.0000
%
T01
X0059403Y0037465
X0067343
Y0040005
Y0042545
Y0045085
Y0047625
Y0050165
Y0052705
Y0055245
X0059403
Y0052705
Y0050165
Y0047625
Y0045085
Y0042545
Y0040005
T02
X0171048Y004064
Y004318
T03
X012609Y0040132
Y0047752
X015657
Y0040132
T04
X0022225Y0025654
X0024765
X0034417
X0036957
X0022225Y0036703
Y0039243
X00451485Y0025654
X00476885
X005588
X005842
T05
X0034417Y0039624
X0076577Y0037465
Y0040005
Y0042545
Y0045085
Y0047625
Y0050165
X0046617Y0051624
X0048617Y0045624
X0034417Y0051624
T06
X0116057Y00380492
Y00415544
Y00450596
Y00485648
T07
X0046617Y0039624
T08
X016888Y0053174
X017308
Y0058674
X016888
X0051054Y0059563
X0046854
Y0065063
X0051054
X0027471Y0054365
Y0050165
X0021971
Y0054365
T09
X0012752Y0017886
X0088727Y0018036
X01040767Y00272093
X01840767Y00273593
X0184071Y0065284
X01040767Y00652093
X0088502Y0071986
X0012677Y0071911
T10
X016418Y0053634
X017778
X0055754Y0060023
X0042154
X0022431Y0059065
Y0045465
M30
