%TF.GenerationSoftware,Altium Limited,Altium Designer,23.1.1 (15)*%
G04 Layer_Physical_Order=1*
G04 Layer_Color=255*
%FSLAX45Y45*%
%MOMM*%
%TF.SameCoordinates,E1690A04-E49A-456B-A56A-BBB97950C0A0*%
%TF.FilePolarity,Positive*%
%TF.FileFunction,Copper,L1,Top,Signal*%
%TF.Part,CustomerPanel*%
G01*
G75*
%TA.AperFunction,NonConductor*%
%ADD10C,0.25400*%
%TA.AperFunction,ComponentPad*%
%ADD11R,2.50000X2.50000*%
%ADD12R,3.50000X3.50000*%
%ADD13R,3.00000X3.00000*%
%ADD14C,3.00000*%
%ADD15R,3.50000X3.50000*%
%ADD16R,2.00000X2.50000*%
%ADD17O,3.00000X2.00000*%
%ADD18R,3.50000X2.00000*%
%ADD19R,2.50000X2.00000*%
%TA.AperFunction,ViaPad*%
%ADD20C,3.50000*%
%TA.AperFunction,ComponentPad*%
%ADD21C,2.20000*%
%ADD22C,2.10000*%
G04:AMPARAMS|DCode=23|XSize=2.1mm|YSize=2.1mm|CornerRadius=0.525mm|HoleSize=0mm|Usage=FLASHONLY|Rotation=180.000|XOffset=0mm|YOffset=0mm|HoleType=Round|Shape=RoundedRectangle|*
%AMROUNDEDRECTD23*
21,1,2.10000,1.05000,0,0,180.0*
21,1,1.05000,2.10000,0,0,180.0*
1,1,1.05000,-0.52500,0.52500*
1,1,1.05000,0.52500,0.52500*
1,1,1.05000,0.52500,-0.52500*
1,1,1.05000,-0.52500,-0.52500*
%
%ADD23ROUNDEDRECTD23*%
%ADD24O,2.25000X1.60000*%
%ADD25C,3.50000*%
D10*
X19583400D01*
X0Y9537700D02*
X19583400D01*
Y0D02*
Y9537700D01*
X0Y0D02*
Y9537700D01*
D11*
X4661700Y5162400D02*
D03*
Y3962400D02*
D03*
X3441700D02*
D03*
Y5162400D02*
D03*
X4861700Y4562400D02*
D03*
D12*
X5105400Y5956300D02*
D03*
Y6506300D02*
D03*
X4685400D02*
D03*
Y5956300D02*
D03*
D13*
X5575400Y6002300D02*
D03*
D14*
X4215400D02*
D03*
X2243100Y5906500D02*
D03*
Y4546500D02*
D03*
X16417999Y5363400D02*
D03*
X17778000D02*
D03*
D15*
X2197100Y5436500D02*
D03*
X2747100D02*
D03*
Y5016500D02*
D03*
X2197100D02*
D03*
D16*
X2476500Y2565400D02*
D03*
X2222500D02*
D03*
X5842000D02*
D03*
X5588000D02*
D03*
X4768850D02*
D03*
X4514850D02*
D03*
X3695700D02*
D03*
X3441700D02*
D03*
D17*
X7657700Y4000500D02*
D03*
Y4254500D02*
D03*
Y4762500D02*
D03*
Y3746500D02*
D03*
Y5016500D02*
D03*
Y4508500D02*
D03*
D18*
X6734300Y3746500D02*
D03*
Y4000500D02*
D03*
Y4254500D02*
D03*
Y4508500D02*
D03*
Y4762500D02*
D03*
Y5016500D02*
D03*
Y5270500D02*
D03*
Y5524500D02*
D03*
X5940300D02*
D03*
Y5270500D02*
D03*
Y5016500D02*
D03*
Y4762500D02*
D03*
Y4508500D02*
D03*
Y4254500D02*
D03*
Y4000500D02*
D03*
Y3746500D02*
D03*
D19*
X2222500Y3670300D02*
D03*
Y3924300D02*
D03*
D20*
X1275200Y1788600D02*
D03*
X8872700Y1803600D02*
D03*
X1267700Y7191100D02*
D03*
X8850200Y7198600D02*
D03*
X10407672Y6520929D02*
D03*
Y2720929D02*
D03*
X18407672Y2735928D02*
D03*
X18407100Y6528400D02*
D03*
D21*
X11605700Y4856480D02*
D03*
Y4505960D02*
D03*
Y3804920D02*
D03*
Y4155440D02*
D03*
D22*
X16888000Y5317400D02*
D03*
X17308000Y5867400D02*
D03*
Y5317400D02*
D03*
D23*
X16888000Y5867400D02*
D03*
D24*
X17104800Y4064000D02*
D03*
Y4318000D02*
D03*
D25*
X15657001Y4013200D02*
D03*
Y4775200D02*
D03*
X12609000Y4013200D02*
D03*
Y4775200D02*
D03*
%TF.MD5,f3a234457a4e794566acb53ffd328d28*%
M02*
