M48
;Layer_Color=9474304
;FILE_FORMAT=4:4
METRIC,LZ
;TYPE=PLATED
T1F00S00C0.9500
T2F00S00C1.4000
T3F00S00C3.0000
;TYPE=NON_PLATED
T4F00S00C3.0000
%
T01
X0015Y002544
Y002798
Y003052
Y003306
X0032893Y003429
Y003683
Y0026162
Y0023622
Y0015494
Y0012954
Y0044958
Y0047498
T02
X0016501Y0041656
X0020701
Y0047156
X0016501
T03
X0003Y0003
X0044
Y0054
X0003
T04
X0011801Y0042116
X0025401
M30
