%TF.GenerationSoftware,Altium Limited,Altium Designer,23.1.1 (15)*%
G04 Layer_Physical_Order=2*
G04 Layer_Color=16711680*
%FSLAX45Y45*%
%MOMM*%
%TF.SameCoordinates,360EE30D-AB56-4616-9298-F0F78F6C7FA0*%
%TF.FilePolarity,Positive*%
%TF.FileFunction,Copper,L2,Bot,Signal*%
%TF.Part,Single*%
G01*
G75*
%TA.AperFunction,ComponentPad*%
%ADD10R,2.50000X2.00000*%
%ADD11R,3.00000X3.00000*%
%ADD12C,3.00000*%
%TA.AperFunction,ViaPad*%
%ADD13C,3.50000*%
%TA.AperFunction,SMDPad,CuDef*%
%ADD14R,2.00000X2.00000*%
%TA.AperFunction,Conductor*%
%ADD15C,0.70000*%
G36*
X733011Y4708011D02*
X654697D01*
X654522Y4632825D01*
X733011Y4567047D01*
Y4521392D01*
X721347Y4521059D01*
X654394Y4577905D01*
X654522Y4632825D01*
X650698Y4636029D01*
Y4581043D01*
X654394Y4577905D01*
X654364Y4565047D01*
X654031Y4560382D01*
X653364Y4556383D01*
X652698Y4552717D01*
X651365Y4549385D01*
X650365Y4546385D01*
X649699Y4544386D01*
X649032Y4543053D01*
X648699Y4542720D01*
X646366Y4539054D01*
X643700Y4535721D01*
X641034Y4533055D01*
X638368Y4530723D01*
X636036Y4528723D01*
X634036Y4527390D01*
X632703Y4526724D01*
X632370Y4526390D01*
X628371Y4524391D01*
X624372Y4523058D01*
X620706Y4521725D01*
X617374Y4521059D01*
X614374Y4520725D01*
X612042Y4520392D01*
X610709D01*
X610042D01*
X548058D01*
X543726Y4520725D01*
X539394Y4521392D01*
X535728Y4522392D01*
X532395Y4523391D01*
X529729Y4524391D01*
X527730Y4525391D01*
X526397Y4526057D01*
X526064Y4526390D01*
X522398Y4528723D01*
X519399Y4531389D01*
X516733Y4534055D01*
X514400Y4536721D01*
X512401Y4539054D01*
X511068Y4541053D01*
X510401Y4542386D01*
X510068Y4542720D01*
X508068Y4546385D01*
X506402Y4550384D01*
X505402Y4554050D01*
X504403Y4557716D01*
X504069Y4560715D01*
X503736Y4563048D01*
Y4750000D01*
X733011D01*
Y4708011D01*
D02*
G37*
G36*
Y4445078D02*
X565054D01*
X668361Y4357434D01*
X564720Y4270456D01*
X733011D01*
Y4228134D01*
X503403D01*
Y4274788D01*
X602711Y4357434D01*
X503403Y4440746D01*
Y4487067D01*
X733011D01*
Y4445078D01*
D02*
G37*
G36*
X546059Y4108831D02*
X733011D01*
Y4066508D01*
X545725Y4066841D01*
X546059Y3972866D01*
X503403D01*
Y4202473D01*
X545725D01*
X546059Y4108831D01*
D02*
G37*
G36*
X775000Y3722263D02*
X733011D01*
Y3949871D01*
X775000D01*
Y3722263D01*
D02*
G37*
G36*
X693021Y3684939D02*
X697353Y3684273D01*
X701019Y3683273D01*
X704351Y3682273D01*
X707351Y3681274D01*
X709350Y3680274D01*
X710683Y3679607D01*
X711016Y3679274D01*
X714682Y3676941D01*
X717681Y3674275D01*
X720347Y3671609D01*
X722680Y3668943D01*
X724680Y3666611D01*
X726013Y3664944D01*
X726679Y3663611D01*
X727012Y3663278D01*
X729012Y3659279D01*
X730345Y3655280D01*
X731678Y3651614D01*
X732344Y3648282D01*
X732677Y3645283D01*
X733011Y3642950D01*
Y3456331D01*
X690688D01*
Y3631953D01*
X690355Y3635285D01*
X689022Y3637951D01*
X688022Y3639618D01*
X687689Y3640284D01*
X685023Y3641950D01*
X682690Y3642950D01*
X680358Y3643283D01*
X680024D01*
X679691D01*
X557056D01*
X553390Y3642950D01*
X551057Y3641617D01*
X549391Y3640617D01*
X549058Y3640284D01*
X547392Y3637618D01*
X546392Y3634952D01*
X546059Y3632619D01*
Y3456331D01*
X503403D01*
Y3640951D01*
X503736Y3645283D01*
X504403Y3649615D01*
X505402Y3653281D01*
X506402Y3656613D01*
X507735Y3659279D01*
X508735Y3661612D01*
X509401Y3662945D01*
X509735Y3663278D01*
X512067Y3666944D01*
X514733Y3669943D01*
X517399Y3672609D01*
X520065Y3674942D01*
X522398Y3676941D01*
X524064Y3678274D01*
X525397Y3678941D01*
X525730Y3679274D01*
X529396Y3681274D01*
X533395Y3682607D01*
X537061Y3683940D01*
X540393Y3684606D01*
X543393Y3684939D01*
X545725Y3685273D01*
X547058D01*
X547725D01*
X688689D01*
X693021Y3684939D01*
D02*
G37*
G36*
X546059Y3340694D02*
X733011D01*
Y3298372D01*
X545725Y3298705D01*
X546059Y3204729D01*
X503403D01*
Y3434337D01*
X545725D01*
X546059Y3340694D01*
D02*
G37*
G36*
Y3098756D02*
X733011D01*
Y3056434D01*
X545725Y3056767D01*
X546059Y2962791D01*
X503403D01*
Y3192399D01*
X545725D01*
X546059Y3098756D01*
D02*
G37*
G36*
X733011Y2897141D02*
X565054D01*
X668361Y2809497D01*
X564720Y2722519D01*
X733011D01*
Y2680197D01*
X503403D01*
Y2726851D01*
X602711Y2809497D01*
X503403Y2892809D01*
Y2939130D01*
X733011D01*
Y2897141D01*
D02*
G37*
G36*
X775000Y2416264D02*
X733011D01*
Y2643873D01*
X775000D01*
Y2416264D01*
D02*
G37*
G36*
X733011Y2149333D02*
X690688D01*
Y2336951D01*
X503070D01*
Y2378940D01*
X733011D01*
Y2149333D01*
D02*
G37*
G36*
X693021Y2131670D02*
X697353Y2131004D01*
X701019Y2130004D01*
X704351Y2129004D01*
X707351Y2128005D01*
X709350Y2127005D01*
X710683Y2126338D01*
X711016Y2126005D01*
X714682Y2123339D01*
X717681Y2120673D01*
X720347Y2118007D01*
X722680Y2115341D01*
X724680Y2113008D01*
X726013Y2111342D01*
X726679Y2110009D01*
X727012Y2109676D01*
X729012Y2106010D01*
X730345Y2102011D01*
X731678Y2098346D01*
X732344Y2095013D01*
X732677Y2092014D01*
X733011Y2089681D01*
Y1946718D01*
X732677Y1942052D01*
X732011Y1938053D01*
X731011Y1934388D01*
X730011Y1931055D01*
X729012Y1928056D01*
X728012Y1926056D01*
X727346Y1924723D01*
X727012Y1924390D01*
X724680Y1920724D01*
X722014Y1917725D01*
X719348Y1915059D01*
X716682Y1912726D01*
X714349Y1910727D01*
X712683Y1909394D01*
X711350Y1908727D01*
X711016Y1908394D01*
X707017Y1906395D01*
X703352Y1905062D01*
X699686Y1903729D01*
X696020Y1903062D01*
X693021Y1902729D01*
X690688Y1902396D01*
X689355D01*
X688689D01*
X641701D01*
X637035Y1902729D01*
X633036Y1903395D01*
X629371Y1904395D01*
X626038Y1905395D01*
X623039Y1906395D01*
X621039Y1907394D01*
X619706Y1908061D01*
X619373Y1908394D01*
X615707Y1910727D01*
X612375Y1913393D01*
X609709Y1916059D01*
X607376Y1918725D01*
X605710Y1921058D01*
X604377Y1922724D01*
X603711Y1924057D01*
X603377Y1924390D01*
X601378Y1928056D01*
X599712Y1932055D01*
X598712Y1935721D01*
X598045Y1939386D01*
X597379Y1942385D01*
X597046Y1944718D01*
Y2087015D01*
X596712Y2088015D01*
X596379Y2088348D01*
Y2088681D01*
X595379Y2089348D01*
X594380Y2089681D01*
X593713D01*
X593380D01*
X549724D01*
X548391Y2089348D01*
X547392Y2089015D01*
X547058Y2088681D01*
X546725D01*
X546059Y2087682D01*
Y1947384D01*
X546392Y1946718D01*
X546725Y1946051D01*
X547725Y1945385D01*
X548725Y1944718D01*
X549391D01*
X549724D01*
X565387D01*
Y1902396D01*
X547725D01*
X543393Y1902729D01*
X539060Y1903395D01*
X535395Y1904395D01*
X532062Y1905395D01*
X529396Y1906395D01*
X527397Y1907394D01*
X526064Y1908061D01*
X525730Y1908394D01*
X522065Y1910727D01*
X519066Y1913393D01*
X516400Y1916059D01*
X514067Y1918725D01*
X512067Y1921058D01*
X510734Y1922724D01*
X510068Y1924057D01*
X509735Y1924390D01*
X507735Y1928056D01*
X506069Y1932055D01*
X505069Y1935721D01*
X504069Y1939386D01*
X503736Y1942385D01*
X503403Y1944718D01*
Y2087682D01*
X503736Y2092014D01*
X504403Y2096013D01*
X505402Y2100012D01*
X506402Y2103011D01*
X507735Y2106010D01*
X508735Y2108010D01*
X509401Y2109343D01*
X509735Y2109676D01*
X512067Y2113342D01*
X514733Y2116341D01*
X517399Y2119340D01*
X520065Y2121673D01*
X522398Y2123339D01*
X524064Y2125005D01*
X525397Y2125672D01*
X525730Y2126005D01*
X529396Y2128005D01*
X533395Y2129338D01*
X537061Y2130671D01*
X540393Y2131337D01*
X543393Y2131670D01*
X545725Y2132004D01*
X547058D01*
X547725D01*
X595046D01*
X599378Y2131670D01*
X603711Y2131004D01*
X607376Y2130004D01*
X610709Y2129004D01*
X613375Y2128005D01*
X615707Y2127005D01*
X617040Y2126338D01*
X617374Y2126005D01*
X621039Y2123339D01*
X624372Y2120673D01*
X627038Y2118007D01*
X629371Y2115341D01*
X631370Y2113008D01*
X632703Y2111342D01*
X633370Y2110009D01*
X633703Y2109676D01*
X635702Y2106010D01*
X637035Y2102011D01*
X638035Y2098346D01*
X638702Y2095013D01*
X639368Y2092014D01*
X639701Y2089681D01*
Y1947384D01*
X640035Y1946718D01*
X640368Y1946051D01*
X640701D01*
X641368Y1945385D01*
X642367Y1944718D01*
X643034D01*
X643367D01*
X687023D01*
X688022Y1945051D01*
X689022Y1945385D01*
X689688Y1945718D01*
X690022Y1946051D01*
X690688Y1946718D01*
Y2087015D01*
X690355Y2088015D01*
X690022Y2088348D01*
Y2088681D01*
X689022Y2089348D01*
X688022Y2089681D01*
X687356D01*
X687023D01*
X671360D01*
Y2132004D01*
X688689D01*
X693021Y2131670D01*
D02*
G37*
G36*
X775000Y1640796D02*
X733011D01*
X733011Y1868404D01*
X775000D01*
X775000Y1640796D01*
D02*
G37*
G36*
X733011Y1477505D02*
Y1439848D01*
X503403Y1306882D01*
Y1355536D01*
X682024Y1458509D01*
X503403Y1561483D01*
Y1610470D01*
X733011Y1477505D01*
D02*
G37*
G36*
X586049Y1246230D02*
X563721Y1227902D01*
X733011D01*
Y1185913D01*
X503403D01*
Y1232234D01*
X586049Y1301550D01*
Y1246230D01*
D02*
G37*
G36*
X733011Y1117930D02*
X691688Y1118263D01*
X691355Y1159919D01*
X733011D01*
Y1117930D01*
D02*
G37*
G36*
X691688Y1086271D02*
X695687Y1085605D01*
X699686Y1084605D01*
X703019Y1083605D01*
X705685Y1082606D01*
X707684Y1081606D01*
X709350Y1080939D01*
X709684Y1080606D01*
X713349Y1078273D01*
X716682Y1075607D01*
X719681Y1072941D01*
X722014Y1070275D01*
X724013Y1067943D01*
X725346Y1066277D01*
X726346Y1064944D01*
X726679Y1064610D01*
X728679Y1060945D01*
X730345Y1056946D01*
X731345Y1053280D01*
X732344Y1049947D01*
X732678Y1046948D01*
X733011Y1044615D01*
Y903318D01*
X732678Y898986D01*
X732011Y894654D01*
X731011Y890988D01*
X729678Y887656D01*
X728679Y884990D01*
X727679Y882990D01*
X727013Y881657D01*
X726679Y881324D01*
X724013Y877658D01*
X721347Y874659D01*
X718348Y871993D01*
X715682Y869660D01*
X713349Y867661D01*
X711350Y866328D01*
X710017Y865661D01*
X709684Y865328D01*
X705685Y863328D01*
X701686Y861995D01*
X698020Y860662D01*
X694354Y859996D01*
X691688Y859663D01*
X689355Y859329D01*
X688023D01*
X687356D01*
X548392D01*
X543726Y859663D01*
X539727Y860329D01*
X536061Y861329D01*
X532729Y862329D01*
X529730Y863328D01*
X527730Y864328D01*
X526397Y864995D01*
X526064Y865328D01*
X522398Y867661D01*
X519399Y870327D01*
X516400Y872993D01*
X514067Y875659D01*
X512401Y877991D01*
X510735Y879658D01*
X510068Y880991D01*
X509735Y881324D01*
X507735Y884990D01*
X506069Y888989D01*
X505069Y892654D01*
X504070Y895987D01*
X503736Y898986D01*
X503403Y901319D01*
Y1042616D01*
X503736Y1046948D01*
X504403Y1050947D01*
X505403Y1054946D01*
X506402Y1057945D01*
X507735Y1060945D01*
X508735Y1062944D01*
X509402Y1064277D01*
X509735Y1064610D01*
X512401Y1068276D01*
X515067Y1071275D01*
X517733Y1073941D01*
X520399Y1076274D01*
X522398Y1078273D01*
X524398Y1079606D01*
X525731Y1080273D01*
X526064Y1080606D01*
X529730Y1082606D01*
X533729Y1083939D01*
X537394Y1085272D01*
X541060Y1085938D01*
X544059Y1086271D01*
X546392Y1086605D01*
X547725D01*
X548392D01*
X687356D01*
X691688Y1086271D01*
D02*
G37*
%LPC*%
G36*
X609376Y4708011D02*
X608709D01*
X608376D01*
X549724D01*
X548725Y4707677D01*
X547725Y4707344D01*
X547392Y4707011D01*
X547058D01*
X546392Y4706011D01*
X546059Y4705011D01*
Y4565714D01*
X546392Y4564714D01*
X546725Y4564381D01*
X547058Y4564048D01*
X547725Y4563381D01*
X548725Y4562715D01*
X549391D01*
X549724D01*
X608376D01*
X609376Y4563048D01*
X610375Y4563381D01*
X611042Y4563714D01*
X611375Y4564048D01*
X612042Y4565047D01*
Y4705011D01*
X611708Y4706011D01*
X611375Y4706678D01*
Y4707011D01*
X610375Y4707677D01*
X609376Y4708011D01*
D02*
G37*
G36*
X650365Y1044949D02*
X550058D01*
X549058Y1044615D01*
X548058Y1044282D01*
X547725Y1043949D01*
X547392D01*
X546725Y1042949D01*
X546392Y1041949D01*
Y919981D01*
X650365Y1044949D01*
D02*
G37*
G36*
X689022Y1025620D02*
X585049Y900985D01*
X685357D01*
X686356Y901319D01*
X687356Y901652D01*
X687689Y901985D01*
X688023Y902318D01*
X688689Y902985D01*
X689022Y903985D01*
Y1025620D01*
D02*
G37*
%LPD*%
D10*
X1500000Y2544000D02*
D03*
Y3306000D02*
D03*
Y3052000D02*
D03*
Y2798000D02*
D03*
X3289300Y4495800D02*
D03*
Y4749800D02*
D03*
Y3429000D02*
D03*
Y3683000D02*
D03*
Y1549400D02*
D03*
Y1295400D02*
D03*
Y2362200D02*
D03*
Y2616200D02*
D03*
D11*
X2070100Y4165600D02*
D03*
Y4715600D02*
D03*
X1650100D02*
D03*
Y4165600D02*
D03*
D12*
X2540100Y4211600D02*
D03*
X1180100D02*
D03*
D13*
X300000Y300000D02*
D03*
X4400000D02*
D03*
Y5400000D02*
D03*
X300000D02*
D03*
D14*
X2488600Y2943860D02*
D03*
X2768600D02*
D03*
X2488600Y2593340D02*
D03*
X2768600D02*
D03*
X2488600Y3294380D02*
D03*
X2768600D02*
D03*
X2488600Y2242820D02*
D03*
X2768600D02*
D03*
D15*
X1500000Y2798000D02*
X1977000D01*
X1500000Y2544000D02*
X1906000D01*
X1054600Y2570100D02*
X1282500Y2798000D01*
X959200Y1347416D02*
Y2999794D01*
X1054600Y1386932D02*
Y2570100D01*
X1409700Y762000D02*
X3845195D01*
X959200Y2999794D02*
X1011405Y3052000D01*
X1449216Y857400D02*
X3749795D01*
X1150000Y1426448D02*
Y2411500D01*
X1282500Y2544000D02*
X1500000D01*
X1054600Y1386932D02*
X1488732Y952800D01*
X1150000Y1426448D02*
X1528247Y1048200D01*
X1150000Y2411500D02*
X1282500Y2544000D01*
X863800Y1307900D02*
X1409700Y762000D01*
X959200Y1347416D02*
X1449216Y857400D01*
X863800Y1307900D02*
Y3254874D01*
X1488732Y952800D02*
X3643411D01*
X1282500Y2798000D02*
X1500000D01*
X863800Y3254874D02*
X916005Y3307080D01*
X1333500D01*
X1500000Y3300730D02*
X2482250D01*
X1011405Y3052000D02*
X1500000D01*
X1339850Y3300730D02*
X1500000D01*
Y3052000D02*
X2098000D01*
X2206140Y2943860D02*
X2488600D01*
X2098000Y3052000D02*
X2206140Y2943860D01*
X2181660Y2593340D02*
X2488600D01*
X1977000Y2798000D02*
X2181660Y2593340D01*
X2207180Y2242820D02*
X2488600D01*
X1906000Y2544000D02*
X2207180Y2242820D01*
X3063605Y1295400D02*
X3289300D01*
X1528247Y1048200D02*
X3603895D01*
X3022600Y1336405D02*
X3063605Y1295400D01*
X2482250Y3300730D02*
X2488600Y3294380D01*
X2768600Y2593340D02*
Y2943860D01*
Y3294380D01*
X3845195Y4762500D02*
X3931100Y4676594D01*
X3302000Y4762500D02*
X3845195D01*
X3022600Y2403205D02*
Y3429000D01*
X3289300Y4749800D02*
X3302000Y4762500D01*
X3289300Y2616200D02*
X3603895D01*
X1650100Y3747400D02*
Y4165600D01*
Y4715600D01*
X2070100Y4165600D02*
Y4715600D01*
X2768600Y3294380D02*
Y3546595D01*
X3012805Y3438795D02*
Y3683000D01*
X1650100Y3747400D02*
X1809900Y3587600D01*
X3022600Y3429000D02*
Y3683000D01*
X3289300D02*
X3749795D01*
X2159000D02*
X3012805D01*
X3022600Y4454795D02*
X3063605Y4495800D01*
X3022600Y3683000D02*
Y4454795D01*
X3063605Y4495800D02*
X3289300D01*
X2070100Y3771900D02*
X2159000Y3683000D01*
X2070100Y3771900D02*
Y4165600D01*
X3749795Y3683000D02*
X3835700Y3597094D01*
X3643411Y952800D02*
X3740300Y1049690D01*
X3603895Y1048200D02*
X3644900Y1089206D01*
X3740300Y1049690D02*
Y2479795D01*
X3603895Y1549400D02*
X3644900Y1508395D01*
X3835700Y943306D02*
Y3597094D01*
X3603895Y2616200D02*
X3740300Y2479795D01*
X3749795Y857400D02*
X3835700Y943306D01*
X3644900Y1089206D02*
Y1508395D01*
X1809900Y3587600D02*
X2727595D01*
X2768600Y3546595D01*
X1333500Y3307080D02*
X1339850Y3300730D01*
X3012805Y3438795D02*
X3022600Y3429000D01*
X3289300D01*
X2768600Y2242820D02*
Y2593340D01*
X3063605Y2362200D02*
X3289300D01*
X3022600Y2403205D02*
X3063605Y2362200D01*
X3289300Y1549400D02*
X3603895D01*
X3931100Y847906D02*
Y4676594D01*
X3845195Y762000D02*
X3931100Y847906D01*
X3022600Y1336405D02*
Y2403205D01*
%TF.MD5,8c5dfc2e0da5f0e534f8826a92f838b5*%
M02*
