%TF.GenerationSoftware,Altium Limited,Altium Designer,23.1.1 (15)*%
G04 Layer_Physical_Order=1*
G04 Layer_Color=255*
%FSLAX45Y45*%
%MOMM*%
%TF.SameCoordinates,A8917E1A-D13C-4AB3-BC94-DF9415B9D46D*%
%TF.FilePolarity,Positive*%
%TF.FileFunction,Copper,L1,Top,Signal*%
%TF.Part,Single*%
G01*
G75*
%TA.AperFunction,ComponentPad*%
%ADD10C,2.20000*%
%ADD11C,3.00000*%
%ADD12C,2.10000*%
G04:AMPARAMS|DCode=13|XSize=2.1mm|YSize=2.1mm|CornerRadius=0.525mm|HoleSize=0mm|Usage=FLASHONLY|Rotation=180.000|XOffset=0mm|YOffset=0mm|HoleType=Round|Shape=RoundedRectangle|*
%AMROUNDEDRECTD13*
21,1,2.10000,1.05000,0,0,180.0*
21,1,1.05000,2.10000,0,0,180.0*
1,1,1.05000,-0.52500,0.52500*
1,1,1.05000,0.52500,0.52500*
1,1,1.05000,0.52500,-0.52500*
1,1,1.05000,-0.52500,-0.52500*
%
%ADD13ROUNDEDRECTD13*%
%ADD14O,2.25000X1.60000*%
%ADD15C,3.50000*%
%TA.AperFunction,ViaPad*%
%ADD16C,3.50000*%
D10*
X1498600Y2418080D02*
D03*
Y2067560D02*
D03*
Y1366520D02*
D03*
Y1717040D02*
D03*
D11*
X6310900Y2925000D02*
D03*
X7670900D02*
D03*
D12*
X6780900Y2879000D02*
D03*
X7200900Y3429000D02*
D03*
Y2879000D02*
D03*
D13*
X6780900Y3429000D02*
D03*
D14*
X6997700Y1625600D02*
D03*
Y1879600D02*
D03*
D15*
X5549900Y1574800D02*
D03*
Y2336800D02*
D03*
X2501900Y1574800D02*
D03*
Y2336800D02*
D03*
D16*
X300572Y4082529D02*
D03*
Y282529D02*
D03*
X8300572Y297528D02*
D03*
X8300000Y4090000D02*
D03*
%TF.MD5,de442d56362d34319d4be1d390579ec7*%
M02*
