M48
;Layer_Color=9474304
;FILE_FORMAT=4:4
METRIC,LZ
;TYPE=PLATED
T1F00S00C0.9500
T2F00S00C1.1000
T3F00S00C1.2954
T4F00S00C1.4000
T5F00S00C3.0000
;TYPE=NON_PLATED
T6F00S00C3.0000
%
T01
X0069977Y0016256
Y0018796
T02
X0025019Y0015748
Y0023368
X0055499
Y0015748
T03
X0014986Y00136652
Y00171704
Y00206756
Y00241808
T04
X0067809Y002879
X0072009
Y003429
X0067809
T05
X00030057Y00028253
X00830057Y00029753
X0083Y00409
X00030057Y00408253
T06
X0063109Y002925
X0076709
M30
