M48
;Layer_Color=9474304
;FILE_FORMAT=4:4
METRIC,LZ
;TYPE=PLATED
T1F00S00C0.9000
T2F00S00C0.9500
T3F00S00C1.0000
T4F00S00C1.1000
T5F00S00C1.2000
T6F00S00C1.2000
T7F00S00C1.8000
T8F00S00C3.0000
%
T01
X008755Y0141035
Y0143575
T02
X01007Y003123
Y003377
T03
X0028298Y0017748
X0030838
Y0020288
X0028298
Y0022828
X0030838
Y0025368
X0028298
Y0027908
X0030838
Y0030448
X0028298
Y0032988
X0030838
Y0035528
X0028298
Y0038068
X0030838
X0079098
Y0035528
Y0032988
Y0030448
Y0027908
Y0025368
Y0022828
Y0020288
Y0017748
X0081638
Y0020288
Y0022828
Y0025368
Y0027908
Y0030448
Y0032988
Y0035528
Y0038068
Y0040608
Y0043148
Y0045688
Y0048228
Y0050768
Y0053308
Y0055848
Y0058388
Y0060928
Y0063468
Y0066008
Y0068548
Y0071088
Y0073628
Y0076168
Y0078708
X0079098
Y0076168
Y0073628
Y0071088
Y0068548
Y0066008
Y0063468
Y0060928
Y0058388
Y0055848
Y0053308
Y0050768
Y0048228
Y0045688
Y0043148
Y0040608
X0030838
X0028298
Y0043148
X0030838
Y0045688
X0028298
Y0048228
X0030838
Y0050768
X0028298
Y0053308
X0030838
Y0055848
X0028298
Y0058388
X0030838
Y0060928
X0028298
Y0063468
X0030838
Y0066008
X0028298
Y0068548
X0030838
Y0071088
X0028298
Y0073628
X0030838
Y0076168
X0028298
Y0078708
X0030838
Y0081248
X0028298
Y0083788
X0030838
Y0086328
X0028298
Y0088868
X0030838
Y0091408
X0028298
Y0093948
X0030838
Y0096488
X0028298
X0079098
Y0093948
Y0091408
Y0088868
Y0086328
Y0083788
Y0081248
X0081638
Y0083788
Y0086328
Y0088868
Y0091408
Y0093948
Y0096488
Y0124428
Y0126968
X0028298
Y0124428
T04
X0094436Y0061275
X006975Y007375
X00402Y0040875
X00353Y0043625
X002015Y004055
X0019175Y0071275
X0021025Y0075425
X0010875Y007995
X00471Y0100225
X0050975Y0096475
X0091025Y012385
T05
X00131Y0030325
Y0032865
Y0035405
Y0037945
X0013625Y0086328
Y0088868
Y0091408
Y0093948
T06
X0013185Y0010714
Y0013254
Y0015794
Y0018334
Y0020874
Y0023414
X0013625Y0067575
Y0069575
Y0071575
Y0073575
Y0075575
X0011425Y013218
Y013472
T07
X00966Y0111
Y01152
X01021
Y0111
Y01194
Y01236
Y01278
Y0132
Y01362
Y01404
Y01446
Y01488
Y0153
Y01572
X00966
Y0153
Y01488
Y01446
Y01404
Y01362
Y0132
Y01278
Y01236
Y01194
T08
X0002925Y0003
X0111
X0003Y0166
X0111
M30
